<?xml version="1.0" encoding="utf-8" standalone="no"?>
<!DOCTYPE svg PUBLIC "-//W3C//DTD SVG 1.1//EN"
  "http://www.w3.org/Graphics/SVG/1.1/DTD/svg11.dtd">
<svg xmlns:xlink="http://www.w3.org/1999/xlink" width="720pt" height="432pt" viewBox="0 0 720 432" xmlns="http://www.w3.org/2000/svg" version="1.1">
 <metadata>
  <rdf:RDF xmlns:dc="http://purl.org/dc/elements/1.1/" xmlns:cc="http://creativecommons.org/ns#" xmlns:rdf="http://www.w3.org/1999/02/22-rdf-syntax-ns#">
   <cc:Work>
    <dc:type rdf:resource="http://purl.org/dc/dcmitype/StillImage"/>
    <dc:date>2025-06-05T09:59:15.008053</dc:date>
    <dc:format>image/svg+xml</dc:format>
    <dc:creator>
     <cc:Agent>
      <dc:title>Matplotlib v3.10.0, https://matplotlib.org/</dc:title>
     </cc:Agent>
    </dc:creator>
   </cc:Work>
  </rdf:RDF>
 </metadata>
 <defs>
  <style type="text/css">*{stroke-linejoin: round; stroke-linecap: butt}</style>
 </defs>
 <g id="figure_1">
  <g id="patch_1">
   <path d="M 0 432 
L 720 432 
L 720 0 
L 0 0 
z
" style="fill: #ffffff"/>
  </g>
  <g id="axes_1">
   <g id="patch_2">
    <path d="M 54.2 390.04 
L 709.2 390.04 
L 709.2 25.44 
L 54.2 25.44 
z
" style="fill: #ffffff"/>
   </g>
   <g id="patch_3">
    <path d="M 83.972727 390.04 
L 89.98742 390.04 
L 89.98742 388.539007 
L 83.972727 388.539007 
z
" clip-path="url(#pbc32b87a69)" style="fill: #87ceeb; opacity: 0.5"/>
   </g>
   <g id="patch_4">
    <path d="M 89.98742 390.04 
L 96.002112 390.04 
L 96.002112 383.183648 
L 89.98742 383.183648 
z
" clip-path="url(#pbc32b87a69)" style="fill: #87ceeb; opacity: 0.5"/>
   </g>
   <g id="patch_5">
    <path d="M 96.002112 390.04 
L 102.016804 390.04 
L 102.016804 374.319379 
L 96.002112 374.319379 
z
" clip-path="url(#pbc32b87a69)" style="fill: #87ceeb; opacity: 0.5"/>
   </g>
   <g id="patch_6">
    <path d="M 102.016804 390.04 
L 108.031497 390.04 
L 108.031497 368.721457 
L 102.016804 368.721457 
z
" clip-path="url(#pbc32b87a69)" style="fill: #87ceeb; opacity: 0.5"/>
   </g>
   <g id="patch_7">
    <path d="M 108.031497 390.04 
L 114.046189 390.04 
L 114.046189 259.424013 
L 108.031497 259.424013 
z
" clip-path="url(#pbc32b87a69)" style="fill: #87ceeb; opacity: 0.5"/>
   </g>
   <g id="patch_8">
    <path d="M 114.046189 390.04 
L 120.060882 390.04 
L 120.060882 339.794488 
L 114.046189 339.794488 
z
" clip-path="url(#pbc32b87a69)" style="fill: #87ceeb; opacity: 0.5"/>
   </g>
   <g id="patch_9">
    <path d="M 120.060882 390.04 
L 126.075574 390.04 
L 126.075574 329.93943 
L 120.060882 329.93943 
z
" clip-path="url(#pbc32b87a69)" style="fill: #87ceeb; opacity: 0.5"/>
   </g>
   <g id="patch_10">
    <path d="M 126.075574 390.04 
L 132.090266 390.04 
L 132.090266 320.193258 
L 126.075574 320.193258 
z
" clip-path="url(#pbc32b87a69)" style="fill: #87ceeb; opacity: 0.5"/>
   </g>
   <g id="patch_11">
    <path d="M 132.090266 390.04 
L 138.104959 390.04 
L 138.104959 311.49992 
L 132.090266 311.49992 
z
" clip-path="url(#pbc32b87a69)" style="fill: #87ceeb; opacity: 0.5"/>
   </g>
   <g id="patch_12">
    <path d="M 138.104959 390.04 
L 144.119651 390.04 
L 144.119651 156.689638 
L 138.104959 156.689638 
z
" clip-path="url(#pbc32b87a69)" style="fill: #87ceeb; opacity: 0.5"/>
   </g>
   <g id="patch_13">
    <path d="M 144.119651 390.04 
L 150.134343 390.04 
L 150.134343 298.903576 
L 144.119651 298.903576 
z
" clip-path="url(#pbc32b87a69)" style="fill: #87ceeb; opacity: 0.5"/>
   </g>
   <g id="patch_14">
    <path d="M 150.134343 390.04 
L 156.149036 390.04 
L 156.149036 306.908873 
L 150.134343 306.908873 
z
" clip-path="url(#pbc32b87a69)" style="fill: #87ceeb; opacity: 0.5"/>
   </g>
   <g id="patch_15">
    <path d="M 156.149036 390.04 
L 162.163728 390.04 
L 162.163728 312.84323 
L 156.149036 312.84323 
z
" clip-path="url(#pbc32b87a69)" style="fill: #87ceeb; opacity: 0.5"/>
   </g>
   <g id="patch_16">
    <path d="M 162.163728 390.04 
L 168.178421 390.04 
L 168.178421 314.048416 
L 162.163728 314.048416 
z
" clip-path="url(#pbc32b87a69)" style="fill: #87ceeb; opacity: 0.5"/>
   </g>
   <g id="patch_17">
    <path d="M 168.178421 390.04 
L 174.193113 390.04 
L 174.193113 313.637666 
L 168.178421 313.637666 
z
" clip-path="url(#pbc32b87a69)" style="fill: #87ceeb; opacity: 0.5"/>
   </g>
   <g id="patch_18">
    <path d="M 174.193113 390.04 
L 180.207805 390.04 
L 180.207805 308.993817 
L 174.193113 308.993817 
z
" clip-path="url(#pbc32b87a69)" style="fill: #87ceeb; opacity: 0.5"/>
   </g>
   <g id="patch_19">
    <path d="M 180.207805 390.04 
L 186.222498 390.04 
L 186.222498 311.1544 
L 180.207805 311.1544 
z
" clip-path="url(#pbc32b87a69)" style="fill: #87ceeb; opacity: 0.5"/>
   </g>
   <g id="patch_20">
    <path d="M 186.222498 390.04 
L 192.23719 390.04 
L 192.23719 315.813895 
L 186.222498 315.813895 
z
" clip-path="url(#pbc32b87a69)" style="fill: #87ceeb; opacity: 0.5"/>
   </g>
   <g id="patch_21">
    <path d="M 192.23719 390.04 
L 198.251882 390.04 
L 198.251882 322.525749 
L 192.23719 322.525749 
z
" clip-path="url(#pbc32b87a69)" style="fill: #87ceeb; opacity: 0.5"/>
   </g>
   <g id="patch_22">
    <path d="M 198.251882 390.04 
L 204.266575 390.04 
L 204.266575 330.795027 
L 198.251882 330.795027 
z
" clip-path="url(#pbc32b87a69)" style="fill: #87ceeb; opacity: 0.5"/>
   </g>
   <g id="patch_23">
    <path d="M 204.266575 390.04 
L 210.281267 390.04 
L 210.281267 338.795876 
L 204.266575 338.795876 
z
" clip-path="url(#pbc32b87a69)" style="fill: #87ceeb; opacity: 0.5"/>
   </g>
   <g id="patch_24">
    <path d="M 210.281267 390.04 
L 216.29596 390.04 
L 216.29596 346.684906 
L 210.281267 346.684906 
z
" clip-path="url(#pbc32b87a69)" style="fill: #87ceeb; opacity: 0.5"/>
   </g>
   <g id="patch_25">
    <path d="M 216.29596 390.04 
L 222.310652 390.04 
L 222.310652 353.650838 
L 216.29596 353.650838 
z
" clip-path="url(#pbc32b87a69)" style="fill: #87ceeb; opacity: 0.5"/>
   </g>
   <g id="patch_26">
    <path d="M 222.310652 390.04 
L 228.325344 390.04 
L 228.325344 359.680139 
L 222.310652 359.680139 
z
" clip-path="url(#pbc32b87a69)" style="fill: #87ceeb; opacity: 0.5"/>
   </g>
   <g id="patch_27">
    <path d="M 228.325344 390.04 
L 234.340037 390.04 
L 234.340037 364.888414 
L 228.325344 364.888414 
z
" clip-path="url(#pbc32b87a69)" style="fill: #87ceeb; opacity: 0.5"/>
   </g>
   <g id="patch_28">
    <path d="M 234.340037 390.04 
L 240.354729 390.04 
L 240.354729 369.188163 
L 234.340037 369.188163 
z
" clip-path="url(#pbc32b87a69)" style="fill: #87ceeb; opacity: 0.5"/>
   </g>
   <g id="patch_29">
    <path d="M 240.354729 390.04 
L 246.369421 390.04 
L 246.369421 372.793058 
L 240.354729 372.793058 
z
" clip-path="url(#pbc32b87a69)" style="fill: #87ceeb; opacity: 0.5"/>
   </g>
   <g id="patch_30">
    <path d="M 246.369421 390.04 
L 252.384114 390.04 
L 252.384114 375.756404 
L 246.369421 375.756404 
z
" clip-path="url(#pbc32b87a69)" style="fill: #87ceeb; opacity: 0.5"/>
   </g>
   <g id="patch_31">
    <path d="M 252.384114 390.04 
L 258.398806 390.04 
L 258.398806 378.200809 
L 252.384114 378.200809 
z
" clip-path="url(#pbc32b87a69)" style="fill: #87ceeb; opacity: 0.5"/>
   </g>
   <g id="patch_32">
    <path d="M 258.398806 390.04 
L 264.413499 390.04 
L 264.413499 380.190273 
L 258.398806 380.190273 
z
" clip-path="url(#pbc32b87a69)" style="fill: #87ceeb; opacity: 0.5"/>
   </g>
   <g id="patch_33">
    <path d="M 264.413499 390.04 
L 270.428191 390.04 
L 270.428191 381.886453 
L 264.413499 381.886453 
z
" clip-path="url(#pbc32b87a69)" style="fill: #87ceeb; opacity: 0.5"/>
   </g>
   <g id="patch_34">
    <path d="M 270.428191 390.04 
L 276.442883 390.04 
L 276.442883 383.264366 
L 270.428191 383.264366 
z
" clip-path="url(#pbc32b87a69)" style="fill: #87ceeb; opacity: 0.5"/>
   </g>
   <g id="patch_35">
    <path d="M 276.442883 390.04 
L 282.457576 390.04 
L 282.457576 384.444569 
L 276.442883 384.444569 
z
" clip-path="url(#pbc32b87a69)" style="fill: #87ceeb; opacity: 0.5"/>
   </g>
   <g id="patch_36">
    <path d="M 282.457576 390.04 
L 288.472268 390.04 
L 288.472268 385.41637 
L 282.457576 385.41637 
z
" clip-path="url(#pbc32b87a69)" style="fill: #87ceeb; opacity: 0.5"/>
   </g>
   <g id="patch_37">
    <path d="M 288.472268 390.04 
L 294.486961 390.04 
L 294.486961 386.244935 
L 288.472268 386.244935 
z
" clip-path="url(#pbc32b87a69)" style="fill: #87ceeb; opacity: 0.5"/>
   </g>
   <g id="patch_38">
    <path d="M 294.486961 390.04 
L 300.501653 390.04 
L 300.501653 386.902348 
L 294.486961 386.902348 
z
" clip-path="url(#pbc32b87a69)" style="fill: #87ceeb; opacity: 0.5"/>
   </g>
   <g id="patch_39">
    <path d="M 300.501653 390.04 
L 306.516345 390.04 
L 306.516345 387.444694 
L 300.501653 387.444694 
z
" clip-path="url(#pbc32b87a69)" style="fill: #87ceeb; opacity: 0.5"/>
   </g>
   <g id="patch_40">
    <path d="M 306.516345 390.04 
L 312.531038 390.04 
L 312.531038 387.88563 
L 306.516345 387.88563 
z
" clip-path="url(#pbc32b87a69)" style="fill: #87ceeb; opacity: 0.5"/>
   </g>
   <g id="patch_41">
    <path d="M 312.531038 390.04 
L 318.54573 390.04 
L 318.54573 388.236354 
L 312.531038 388.236354 
z
" clip-path="url(#pbc32b87a69)" style="fill: #87ceeb; opacity: 0.5"/>
   </g>
   <g id="patch_42">
    <path d="M 318.54573 390.04 
L 324.560422 390.04 
L 324.560422 388.520775 
L 318.54573 388.520775 
z
" clip-path="url(#pbc32b87a69)" style="fill: #87ceeb; opacity: 0.5"/>
   </g>
   <g id="patch_43">
    <path d="M 324.560422 390.04 
L 330.575115 390.04 
L 330.575115 388.728642 
L 324.560422 388.728642 
z
" clip-path="url(#pbc32b87a69)" style="fill: #87ceeb; opacity: 0.5"/>
   </g>
   <g id="patch_44">
    <path d="M 330.575115 390.04 
L 336.589807 390.04 
L 336.589807 388.919854 
L 330.575115 388.919854 
z
" clip-path="url(#pbc32b87a69)" style="fill: #87ceeb; opacity: 0.5"/>
   </g>
   <g id="patch_45">
    <path d="M 336.589807 390.04 
L 342.6045 390.04 
L 342.6045 389.049621 
L 336.589807 389.049621 
z
" clip-path="url(#pbc32b87a69)" style="fill: #87ceeb; opacity: 0.5"/>
   </g>
   <g id="patch_46">
    <path d="M 342.6045 390.04 
L 348.619192 390.04 
L 348.619192 389.166518 
L 342.6045 389.166518 
z
" clip-path="url(#pbc32b87a69)" style="fill: #87ceeb; opacity: 0.5"/>
   </g>
   <g id="patch_47">
    <path d="M 348.619192 390.04 
L 354.633884 390.04 
L 354.633884 389.249034 
L 348.619192 389.249034 
z
" clip-path="url(#pbc32b87a69)" style="fill: #87ceeb; opacity: 0.5"/>
   </g>
   <g id="patch_48">
    <path d="M 354.633884 390.04 
L 360.648577 390.04 
L 360.648577 389.310637 
L 354.633884 389.310637 
z
" clip-path="url(#pbc32b87a69)" style="fill: #87ceeb; opacity: 0.5"/>
   </g>
   <g id="patch_49">
    <path d="M 360.648577 390.04 
L 366.663269 390.04 
L 366.663269 389.372902 
L 360.648577 389.372902 
z
" clip-path="url(#pbc32b87a69)" style="fill: #87ceeb; opacity: 0.5"/>
   </g>
   <g id="patch_50">
    <path d="M 366.663269 390.04 
L 372.677961 390.04 
L 372.677961 389.421194 
L 366.663269 389.421194 
z
" clip-path="url(#pbc32b87a69)" style="fill: #87ceeb; opacity: 0.5"/>
   </g>
   <g id="patch_51">
    <path d="M 372.677961 390.04 
L 378.692654 390.04 
L 378.692654 389.470401 
L 372.677961 389.470401 
z
" clip-path="url(#pbc32b87a69)" style="fill: #87ceeb; opacity: 0.5"/>
   </g>
   <g id="patch_52">
    <path d="M 378.692654 390.04 
L 384.707346 390.04 
L 384.707346 389.257803 
L 378.692654 389.257803 
z
" clip-path="url(#pbc32b87a69)" style="fill: #87ceeb; opacity: 0.5"/>
   </g>
   <g id="patch_53">
    <path d="M 384.707346 390.04 
L 390.722039 390.04 
L 390.722039 389.568814 
L 384.707346 389.568814 
z
" clip-path="url(#pbc32b87a69)" style="fill: #87ceeb; opacity: 0.5"/>
   </g>
   <g id="patch_54">
    <path d="M 390.722039 390.04 
L 396.736731 390.04 
L 396.736731 389.600925 
L 390.722039 389.600925 
z
" clip-path="url(#pbc32b87a69)" style="fill: #87ceeb; opacity: 0.5"/>
   </g>
   <g id="patch_55">
    <path d="M 396.736731 390.04 
L 402.751423 390.04 
L 402.751423 389.629881 
L 396.736731 389.629881 
z
" clip-path="url(#pbc32b87a69)" style="fill: #87ceeb; opacity: 0.5"/>
   </g>
   <g id="patch_56">
    <path d="M 402.751423 390.04 
L 408.766116 390.04 
L 408.766116 389.661424 
L 402.751423 389.661424 
z
" clip-path="url(#pbc32b87a69)" style="fill: #87ceeb; opacity: 0.5"/>
   </g>
   <g id="patch_57">
    <path d="M 408.766116 390.04 
L 414.780808 390.04 
L 414.780808 389.69221 
L 408.766116 389.69221 
z
" clip-path="url(#pbc32b87a69)" style="fill: #87ceeb; opacity: 0.5"/>
   </g>
   <g id="patch_58">
    <path d="M 414.780808 390.04 
L 420.7955 390.04 
L 420.7955 389.716529 
L 414.780808 389.716529 
z
" clip-path="url(#pbc32b87a69)" style="fill: #87ceeb; opacity: 0.5"/>
   </g>
   <g id="patch_59">
    <path d="M 420.7955 390.04 
L 426.810193 390.04 
L 426.810193 389.739335 
L 420.7955 389.739335 
z
" clip-path="url(#pbc32b87a69)" style="fill: #87ceeb; opacity: 0.5"/>
   </g>
   <g id="patch_60">
    <path d="M 426.810193 390.04 
L 432.824885 390.04 
L 432.824885 389.768133 
L 426.810193 389.768133 
z
" clip-path="url(#pbc32b87a69)" style="fill: #87ceeb; opacity: 0.5"/>
   </g>
   <g id="patch_61">
    <path d="M 432.824885 390.04 
L 438.839578 390.04 
L 438.839578 389.78504 
L 432.824885 389.78504 
z
" clip-path="url(#pbc32b87a69)" style="fill: #87ceeb; opacity: 0.5"/>
   </g>
   <g id="patch_62">
    <path d="M 438.839578 390.04 
L 444.85427 390.04 
L 444.85427 389.81059 
L 438.839578 389.81059 
z
" clip-path="url(#pbc32b87a69)" style="fill: #87ceeb; opacity: 0.5"/>
   </g>
   <g id="patch_63">
    <path d="M 444.85427 390.04 
L 450.868962 390.04 
L 450.868962 389.831786 
L 444.85427 389.831786 
z
" clip-path="url(#pbc32b87a69)" style="fill: #87ceeb; opacity: 0.5"/>
   </g>
   <g id="patch_64">
    <path d="M 450.868962 390.04 
L 456.883655 390.04 
L 456.883655 389.847715 
L 450.868962 389.847715 
z
" clip-path="url(#pbc32b87a69)" style="fill: #87ceeb; opacity: 0.5"/>
   </g>
   <g id="patch_65">
    <path d="M 456.883655 390.04 
L 462.898347 390.04 
L 462.898347 389.867556 
L 456.883655 389.867556 
z
" clip-path="url(#pbc32b87a69)" style="fill: #87ceeb; opacity: 0.5"/>
   </g>
   <g id="patch_66">
    <path d="M 462.898347 390.04 
L 468.913039 390.04 
L 468.913039 389.886986 
L 462.898347 389.886986 
z
" clip-path="url(#pbc32b87a69)" style="fill: #87ceeb; opacity: 0.5"/>
   </g>
   <g id="patch_67">
    <path d="M 468.913039 390.04 
L 474.927732 390.04 
L 474.927732 389.900139 
L 468.913039 389.900139 
z
" clip-path="url(#pbc32b87a69)" style="fill: #87ceeb; opacity: 0.5"/>
   </g>
   <g id="patch_68">
    <path d="M 474.927732 390.04 
L 480.942424 390.04 
L 480.942424 389.909981 
L 474.927732 389.909981 
z
" clip-path="url(#pbc32b87a69)" style="fill: #87ceeb; opacity: 0.5"/>
   </g>
   <g id="patch_69">
    <path d="M 480.942424 390.04 
L 486.957117 390.04 
L 486.957117 389.926005 
L 480.942424 389.926005 
z
" clip-path="url(#pbc32b87a69)" style="fill: #87ceeb; opacity: 0.5"/>
   </g>
   <g id="patch_70">
    <path d="M 486.957117 390.04 
L 492.971809 390.04 
L 492.971809 389.936887 
L 486.957117 389.936887 
z
" clip-path="url(#pbc32b87a69)" style="fill: #87ceeb; opacity: 0.5"/>
   </g>
   <g id="patch_71">
    <path d="M 492.971809 390.04 
L 498.986501 390.04 
L 498.986501 389.950671 
L 492.971809 389.950671 
z
" clip-path="url(#pbc32b87a69)" style="fill: #87ceeb; opacity: 0.5"/>
   </g>
   <g id="patch_72">
    <path d="M 498.986501 390.04 
L 505.001194 390.04 
L 505.001194 389.955213 
L 498.986501 389.955213 
z
" clip-path="url(#pbc32b87a69)" style="fill: #87ceeb; opacity: 0.5"/>
   </g>
   <g id="patch_73">
    <path d="M 505.001194 390.04 
L 511.015886 390.04 
L 511.015886 389.968051 
L 505.001194 389.968051 
z
" clip-path="url(#pbc32b87a69)" style="fill: #87ceeb; opacity: 0.5"/>
   </g>
   <g id="patch_74">
    <path d="M 511.015886 390.04 
L 517.030579 390.04 
L 517.030579 389.9754 
L 511.015886 389.9754 
z
" clip-path="url(#pbc32b87a69)" style="fill: #87ceeb; opacity: 0.5"/>
   </g>
   <g id="patch_75">
    <path d="M 517.030579 390.04 
L 523.045271 390.04 
L 523.045271 389.983318 
L 517.030579 389.983318 
z
" clip-path="url(#pbc32b87a69)" style="fill: #87ceeb; opacity: 0.5"/>
   </g>
   <g id="patch_76">
    <path d="M 523.045271 390.04 
L 529.059963 390.04 
L 529.059963 389.990667 
L 523.045271 389.990667 
z
" clip-path="url(#pbc32b87a69)" style="fill: #87ceeb; opacity: 0.5"/>
   </g>
   <g id="patch_77">
    <path d="M 529.059963 390.04 
L 535.074656 390.04 
L 535.074656 389.995178 
L 529.059963 389.995178 
z
" clip-path="url(#pbc32b87a69)" style="fill: #87ceeb; opacity: 0.5"/>
   </g>
   <g id="patch_78">
    <path d="M 535.074656 390.04 
L 541.089348 390.04 
L 541.089348 390.000824 
L 535.074656 390.000824 
z
" clip-path="url(#pbc32b87a69)" style="fill: #87ceeb; opacity: 0.5"/>
   </g>
   <g id="patch_79">
    <path d="M 541.089348 390.04 
L 547.10404 390.04 
L 547.10404 390.007101 
L 541.089348 390.007101 
z
" clip-path="url(#pbc32b87a69)" style="fill: #87ceeb; opacity: 0.5"/>
   </g>
   <g id="patch_80">
    <path d="M 547.10404 390.04 
L 553.118733 390.04 
L 553.118733 390.01035 
L 547.10404 390.01035 
z
" clip-path="url(#pbc32b87a69)" style="fill: #87ceeb; opacity: 0.5"/>
   </g>
   <g id="patch_81">
    <path d="M 553.118733 390.04 
L 559.133425 390.04 
L 559.133425 390.014198 
L 553.118733 390.014198 
z
" clip-path="url(#pbc32b87a69)" style="fill: #87ceeb; opacity: 0.5"/>
   </g>
   <g id="patch_82">
    <path d="M 559.133425 390.04 
L 565.148118 390.04 
L 565.148118 390.01975 
L 559.133425 390.01975 
z
" clip-path="url(#pbc32b87a69)" style="fill: #87ceeb; opacity: 0.5"/>
   </g>
   <g id="patch_83">
    <path d="M 565.148118 390.04 
L 571.16281 390.04 
L 571.16281 390.023093 
L 565.148118 390.023093 
z
" clip-path="url(#pbc32b87a69)" style="fill: #87ceeb; opacity: 0.5"/>
   </g>
   <g id="patch_84">
    <path d="M 571.16281 390.04 
L 577.177502 390.04 
L 577.177502 390.024481 
L 571.16281 390.024481 
z
" clip-path="url(#pbc32b87a69)" style="fill: #87ceeb; opacity: 0.5"/>
   </g>
   <g id="patch_85">
    <path d="M 577.177502 390.04 
L 583.192195 390.04 
L 583.192195 390.029528 
L 577.177502 390.029528 
z
" clip-path="url(#pbc32b87a69)" style="fill: #87ceeb; opacity: 0.5"/>
   </g>
   <g id="patch_86">
    <path d="M 583.192195 390.04 
L 589.206887 390.04 
L 589.206887 390.029875 
L 583.192195 390.029875 
z
" clip-path="url(#pbc32b87a69)" style="fill: #87ceeb; opacity: 0.5"/>
   </g>
   <g id="patch_87">
    <path d="M 589.206887 390.04 
L 595.221579 390.04 
L 595.221579 390.031578 
L 589.206887 390.031578 
z
" clip-path="url(#pbc32b87a69)" style="fill: #87ceeb; opacity: 0.5"/>
   </g>
   <g id="patch_88">
    <path d="M 595.221579 390.04 
L 601.236272 390.04 
L 601.236272 390.033565 
L 595.221579 390.033565 
z
" clip-path="url(#pbc32b87a69)" style="fill: #87ceeb; opacity: 0.5"/>
   </g>
   <g id="patch_89">
    <path d="M 601.236272 390.04 
L 607.250964 390.04 
L 607.250964 390.035805 
L 601.236272 390.035805 
z
" clip-path="url(#pbc32b87a69)" style="fill: #87ceeb; opacity: 0.5"/>
   </g>
   <g id="patch_90">
    <path d="M 607.250964 390.04 
L 613.265657 390.04 
L 613.265657 390.036152 
L 607.250964 390.036152 
z
" clip-path="url(#pbc32b87a69)" style="fill: #87ceeb; opacity: 0.5"/>
   </g>
   <g id="patch_91">
    <path d="M 613.265657 390.04 
L 619.280349 390.04 
L 619.280349 390.037224 
L 613.265657 390.037224 
z
" clip-path="url(#pbc32b87a69)" style="fill: #87ceeb; opacity: 0.5"/>
   </g>
   <g id="patch_92">
    <path d="M 619.280349 390.04 
L 625.295041 390.04 
L 625.295041 390.038107 
L 619.280349 390.038107 
z
" clip-path="url(#pbc32b87a69)" style="fill: #87ceeb; opacity: 0.5"/>
   </g>
   <g id="patch_93">
    <path d="M 625.295041 390.04 
L 631.309734 390.04 
L 631.309734 390.038013 
L 625.295041 390.038013 
z
" clip-path="url(#pbc32b87a69)" style="fill: #87ceeb; opacity: 0.5"/>
   </g>
   <g id="patch_94">
    <path d="M 631.309734 390.04 
L 637.324426 390.04 
L 637.324426 390.038833 
L 631.309734 390.038833 
z
" clip-path="url(#pbc32b87a69)" style="fill: #87ceeb; opacity: 0.5"/>
   </g>
   <g id="patch_95">
    <path d="M 637.324426 390.04 
L 643.339118 390.04 
L 643.339118 390.039369 
L 637.324426 390.039369 
z
" clip-path="url(#pbc32b87a69)" style="fill: #87ceeb; opacity: 0.5"/>
   </g>
   <g id="patch_96">
    <path d="M 643.339118 390.04 
L 649.353811 390.04 
L 649.353811 390.039685 
L 643.339118 390.039685 
z
" clip-path="url(#pbc32b87a69)" style="fill: #87ceeb; opacity: 0.5"/>
   </g>
   <g id="patch_97">
    <path d="M 649.353811 390.04 
L 655.368503 390.04 
L 655.368503 390.039874 
L 649.353811 390.039874 
z
" clip-path="url(#pbc32b87a69)" style="fill: #87ceeb; opacity: 0.5"/>
   </g>
   <g id="patch_98">
    <path d="M 655.368503 390.04 
L 661.383196 390.04 
L 661.383196 390.039685 
L 655.368503 390.039685 
z
" clip-path="url(#pbc32b87a69)" style="fill: #87ceeb; opacity: 0.5"/>
   </g>
   <g id="patch_99">
    <path d="M 661.383196 390.04 
L 667.397888 390.04 
L 667.397888 390.039937 
L 661.383196 390.039937 
z
" clip-path="url(#pbc32b87a69)" style="fill: #87ceeb; opacity: 0.5"/>
   </g>
   <g id="patch_100">
    <path d="M 667.397888 390.04 
L 673.41258 390.04 
L 673.41258 390.04 
L 667.397888 390.04 
z
" clip-path="url(#pbc32b87a69)" style="fill: #87ceeb; opacity: 0.5"/>
   </g>
   <g id="patch_101">
    <path d="M 673.41258 390.04 
L 679.427273 390.04 
L 679.427273 390.039937 
L 673.41258 390.039937 
z
" clip-path="url(#pbc32b87a69)" style="fill: #87ceeb; opacity: 0.5"/>
   </g>
   <g id="patch_102">
    <path d="M 83.972727 390.04 
L 89.98742 390.04 
L 89.98742 388.310921 
L 83.972727 388.310921 
z
" clip-path="url(#pbc32b87a69)" style="fill: #fa8072; opacity: 0.5"/>
   </g>
   <g id="patch_103">
    <path d="M 89.98742 390.04 
L 96.002112 390.04 
L 96.002112 382.123244 
L 89.98742 382.123244 
z
" clip-path="url(#pbc32b87a69)" style="fill: #fa8072; opacity: 0.5"/>
   </g>
   <g id="patch_104">
    <path d="M 96.002112 390.04 
L 102.016804 390.04 
L 102.016804 371.659033 
L 96.002112 371.659033 
z
" clip-path="url(#pbc32b87a69)" style="fill: #fa8072; opacity: 0.5"/>
   </g>
   <g id="patch_105">
    <path d="M 102.016804 390.04 
L 108.031497 390.04 
L 108.031497 352.348501 
L 102.016804 352.348501 
z
" clip-path="url(#pbc32b87a69)" style="fill: #fa8072; opacity: 0.5"/>
   </g>
   <g id="patch_106">
    <path d="M 108.031497 390.04 
L 114.046189 390.04 
L 114.046189 264.74742 
L 108.031497 264.74742 
z
" clip-path="url(#pbc32b87a69)" style="fill: #fa8072; opacity: 0.5"/>
   </g>
   <g id="patch_107">
    <path d="M 114.046189 390.04 
L 120.060882 390.04 
L 120.060882 296.684292 
L 114.046189 296.684292 
z
" clip-path="url(#pbc32b87a69)" style="fill: #fa8072; opacity: 0.5"/>
   </g>
   <g id="patch_108">
    <path d="M 120.060882 390.04 
L 126.075574 390.04 
L 126.075574 230.712734 
L 120.060882 230.712734 
z
" clip-path="url(#pbc32b87a69)" style="fill: #fa8072; opacity: 0.5"/>
   </g>
   <g id="patch_109">
    <path d="M 126.075574 390.04 
L 132.090266 390.04 
L 132.090266 130.451057 
L 126.075574 130.451057 
z
" clip-path="url(#pbc32b87a69)" style="fill: #fa8072; opacity: 0.5"/>
   </g>
   <g id="patch_110">
    <path d="M 132.090266 390.04 
L 138.104959 390.04 
L 138.104959 120.206888 
L 132.090266 120.206888 
z
" clip-path="url(#pbc32b87a69)" style="fill: #fa8072; opacity: 0.5"/>
   </g>
   <g id="patch_111">
    <path d="M 138.104959 390.04 
L 144.119651 390.04 
L 144.119651 42.801905 
L 138.104959 42.801905 
z
" clip-path="url(#pbc32b87a69)" style="fill: #fa8072; opacity: 0.5"/>
   </g>
   <g id="patch_112">
    <path d="M 144.119651 390.04 
L 150.134343 390.04 
L 150.134343 216.133582 
L 144.119651 216.133582 
z
" clip-path="url(#pbc32b87a69)" style="fill: #fa8072; opacity: 0.5"/>
   </g>
   <g id="patch_113">
    <path d="M 150.134343 390.04 
L 156.149036 390.04 
L 156.149036 278.096057 
L 150.134343 278.096057 
z
" clip-path="url(#pbc32b87a69)" style="fill: #fa8072; opacity: 0.5"/>
   </g>
   <g id="patch_114">
    <path d="M 156.149036 390.04 
L 162.163728 390.04 
L 162.163728 325.544895 
L 156.149036 325.544895 
z
" clip-path="url(#pbc32b87a69)" style="fill: #fa8072; opacity: 0.5"/>
   </g>
   <g id="patch_115">
    <path d="M 162.163728 390.04 
L 168.178421 390.04 
L 168.178421 354.182301 
L 162.163728 354.182301 
z
" clip-path="url(#pbc32b87a69)" style="fill: #fa8072; opacity: 0.5"/>
   </g>
   <g id="patch_116">
    <path d="M 168.178421 390.04 
L 174.193113 390.04 
L 174.193113 370.353415 
L 168.178421 370.353415 
z
" clip-path="url(#pbc32b87a69)" style="fill: #fa8072; opacity: 0.5"/>
   </g>
   <g id="patch_117">
    <path d="M 174.193113 390.04 
L 180.207805 390.04 
L 180.207805 379.684895 
L 174.193113 379.684895 
z
" clip-path="url(#pbc32b87a69)" style="fill: #fa8072; opacity: 0.5"/>
   </g>
   <g id="patch_118">
    <path d="M 180.207805 390.04 
L 186.222498 390.04 
L 186.222498 384.696911 
L 180.207805 384.696911 
z
" clip-path="url(#pbc32b87a69)" style="fill: #fa8072; opacity: 0.5"/>
   </g>
   <g id="patch_119">
    <path d="M 186.222498 390.04 
L 192.23719 390.04 
L 192.23719 387.30537 
L 186.222498 387.30537 
z
" clip-path="url(#pbc32b87a69)" style="fill: #fa8072; opacity: 0.5"/>
   </g>
   <g id="patch_120">
    <path d="M 192.23719 390.04 
L 198.251882 390.04 
L 198.251882 388.662812 
L 192.23719 388.662812 
z
" clip-path="url(#pbc32b87a69)" style="fill: #fa8072; opacity: 0.5"/>
   </g>
   <g id="patch_121">
    <path d="M 198.251882 390.04 
L 204.266575 390.04 
L 204.266575 389.361894 
L 198.251882 389.361894 
z
" clip-path="url(#pbc32b87a69)" style="fill: #fa8072; opacity: 0.5"/>
   </g>
   <g id="patch_122">
    <path d="M 204.266575 390.04 
L 210.281267 390.04 
L 210.281267 389.694702 
L 204.266575 389.694702 
z
" clip-path="url(#pbc32b87a69)" style="fill: #fa8072; opacity: 0.5"/>
   </g>
   <g id="patch_123">
    <path d="M 210.281267 390.04 
L 216.29596 390.04 
L 216.29596 389.878123 
L 210.281267 389.878123 
z
" clip-path="url(#pbc32b87a69)" style="fill: #fa8072; opacity: 0.5"/>
   </g>
   <g id="patch_124">
    <path d="M 216.29596 390.04 
L 222.310652 390.04 
L 222.310652 389.963162 
L 216.29596 389.963162 
z
" clip-path="url(#pbc32b87a69)" style="fill: #fa8072; opacity: 0.5"/>
   </g>
   <g id="patch_125">
    <path d="M 222.310652 390.04 
L 228.325344 390.04 
L 228.325344 390.002906 
L 222.310652 390.002906 
z
" clip-path="url(#pbc32b87a69)" style="fill: #fa8072; opacity: 0.5"/>
   </g>
   <g id="patch_126">
    <path d="M 228.325344 390.04 
L 234.340037 390.04 
L 234.340037 390.023566 
L 228.325344 390.023566 
z
" clip-path="url(#pbc32b87a69)" style="fill: #fa8072; opacity: 0.5"/>
   </g>
   <g id="patch_127">
    <path d="M 234.340037 390.04 
L 240.354729 390.04 
L 240.354729 390.032272 
L 234.340037 390.032272 
z
" clip-path="url(#pbc32b87a69)" style="fill: #fa8072; opacity: 0.5"/>
   </g>
   <g id="patch_128">
    <path d="M 240.354729 390.04 
L 246.369421 390.04 
L 246.369421 390.036309 
L 240.354729 390.036309 
z
" clip-path="url(#pbc32b87a69)" style="fill: #fa8072; opacity: 0.5"/>
   </g>
   <g id="patch_129">
    <path d="M 246.369421 390.04 
L 252.384114 390.04 
L 252.384114 390.038265 
L 246.369421 390.038265 
z
" clip-path="url(#pbc32b87a69)" style="fill: #fa8072; opacity: 0.5"/>
   </g>
   <g id="patch_130">
    <path d="M 252.384114 390.04 
L 258.398806 390.04 
L 258.398806 390.039338 
L 252.384114 390.039338 
z
" clip-path="url(#pbc32b87a69)" style="fill: #fa8072; opacity: 0.5"/>
   </g>
   <g id="patch_131">
    <path d="M 258.398806 390.04 
L 264.413499 390.04 
L 264.413499 390.039621 
L 258.398806 390.039621 
z
" clip-path="url(#pbc32b87a69)" style="fill: #fa8072; opacity: 0.5"/>
   </g>
   <g id="patch_132">
    <path d="M 264.413499 390.04 
L 270.428191 390.04 
L 270.428191 390.039905 
L 264.413499 390.039905 
z
" clip-path="url(#pbc32b87a69)" style="fill: #fa8072; opacity: 0.5"/>
   </g>
   <g id="patch_133">
    <path d="M 270.428191 390.04 
L 276.442883 390.04 
L 276.442883 390.04 
L 270.428191 390.04 
z
" clip-path="url(#pbc32b87a69)" style="fill: #fa8072; opacity: 0.5"/>
   </g>
   <g id="patch_134">
    <path d="M 276.442883 390.04 
L 282.457576 390.04 
L 282.457576 390.04 
L 276.442883 390.04 
z
" clip-path="url(#pbc32b87a69)" style="fill: #fa8072; opacity: 0.5"/>
   </g>
   <g id="patch_135">
    <path d="M 282.457576 390.04 
L 288.472268 390.04 
L 288.472268 390.039968 
L 282.457576 390.039968 
z
" clip-path="url(#pbc32b87a69)" style="fill: #fa8072; opacity: 0.5"/>
   </g>
   <g id="patch_136">
    <path d="M 288.472268 390.04 
L 294.486961 390.04 
L 294.486961 390.04 
L 288.472268 390.04 
z
" clip-path="url(#pbc32b87a69)" style="fill: #fa8072; opacity: 0.5"/>
   </g>
   <g id="patch_137">
    <path d="M 294.486961 390.04 
L 300.501653 390.04 
L 300.501653 390.04 
L 294.486961 390.04 
z
" clip-path="url(#pbc32b87a69)" style="fill: #fa8072; opacity: 0.5"/>
   </g>
   <g id="patch_138">
    <path d="M 300.501653 390.04 
L 306.516345 390.04 
L 306.516345 390.04 
L 300.501653 390.04 
z
" clip-path="url(#pbc32b87a69)" style="fill: #fa8072; opacity: 0.5"/>
   </g>
   <g id="patch_139">
    <path d="M 306.516345 390.04 
L 312.531038 390.04 
L 312.531038 390.04 
L 306.516345 390.04 
z
" clip-path="url(#pbc32b87a69)" style="fill: #fa8072; opacity: 0.5"/>
   </g>
   <g id="patch_140">
    <path d="M 312.531038 390.04 
L 318.54573 390.04 
L 318.54573 390.04 
L 312.531038 390.04 
z
" clip-path="url(#pbc32b87a69)" style="fill: #fa8072; opacity: 0.5"/>
   </g>
   <g id="patch_141">
    <path d="M 318.54573 390.04 
L 324.560422 390.04 
L 324.560422 390.04 
L 318.54573 390.04 
z
" clip-path="url(#pbc32b87a69)" style="fill: #fa8072; opacity: 0.5"/>
   </g>
   <g id="patch_142">
    <path d="M 324.560422 390.04 
L 330.575115 390.04 
L 330.575115 390.04 
L 324.560422 390.04 
z
" clip-path="url(#pbc32b87a69)" style="fill: #fa8072; opacity: 0.5"/>
   </g>
   <g id="patch_143">
    <path d="M 330.575115 390.04 
L 336.589807 390.04 
L 336.589807 390.04 
L 330.575115 390.04 
z
" clip-path="url(#pbc32b87a69)" style="fill: #fa8072; opacity: 0.5"/>
   </g>
   <g id="patch_144">
    <path d="M 336.589807 390.04 
L 342.6045 390.04 
L 342.6045 390.04 
L 336.589807 390.04 
z
" clip-path="url(#pbc32b87a69)" style="fill: #fa8072; opacity: 0.5"/>
   </g>
   <g id="patch_145">
    <path d="M 342.6045 390.04 
L 348.619192 390.04 
L 348.619192 390.04 
L 342.6045 390.04 
z
" clip-path="url(#pbc32b87a69)" style="fill: #fa8072; opacity: 0.5"/>
   </g>
   <g id="patch_146">
    <path d="M 348.619192 390.04 
L 354.633884 390.04 
L 354.633884 390.04 
L 348.619192 390.04 
z
" clip-path="url(#pbc32b87a69)" style="fill: #fa8072; opacity: 0.5"/>
   </g>
   <g id="patch_147">
    <path d="M 354.633884 390.04 
L 360.648577 390.04 
L 360.648577 390.04 
L 354.633884 390.04 
z
" clip-path="url(#pbc32b87a69)" style="fill: #fa8072; opacity: 0.5"/>
   </g>
   <g id="patch_148">
    <path d="M 360.648577 390.04 
L 366.663269 390.04 
L 366.663269 390.04 
L 360.648577 390.04 
z
" clip-path="url(#pbc32b87a69)" style="fill: #fa8072; opacity: 0.5"/>
   </g>
   <g id="patch_149">
    <path d="M 366.663269 390.04 
L 372.677961 390.04 
L 372.677961 390.04 
L 366.663269 390.04 
z
" clip-path="url(#pbc32b87a69)" style="fill: #fa8072; opacity: 0.5"/>
   </g>
   <g id="patch_150">
    <path d="M 372.677961 390.04 
L 378.692654 390.04 
L 378.692654 390.04 
L 372.677961 390.04 
z
" clip-path="url(#pbc32b87a69)" style="fill: #fa8072; opacity: 0.5"/>
   </g>
   <g id="patch_151">
    <path d="M 378.692654 390.04 
L 384.707346 390.04 
L 384.707346 390.04 
L 378.692654 390.04 
z
" clip-path="url(#pbc32b87a69)" style="fill: #fa8072; opacity: 0.5"/>
   </g>
   <g id="patch_152">
    <path d="M 384.707346 390.04 
L 390.722039 390.04 
L 390.722039 390.04 
L 384.707346 390.04 
z
" clip-path="url(#pbc32b87a69)" style="fill: #fa8072; opacity: 0.5"/>
   </g>
   <g id="patch_153">
    <path d="M 390.722039 390.04 
L 396.736731 390.04 
L 396.736731 390.04 
L 390.722039 390.04 
z
" clip-path="url(#pbc32b87a69)" style="fill: #fa8072; opacity: 0.5"/>
   </g>
   <g id="patch_154">
    <path d="M 396.736731 390.04 
L 402.751423 390.04 
L 402.751423 390.04 
L 396.736731 390.04 
z
" clip-path="url(#pbc32b87a69)" style="fill: #fa8072; opacity: 0.5"/>
   </g>
   <g id="patch_155">
    <path d="M 402.751423 390.04 
L 408.766116 390.04 
L 408.766116 390.04 
L 402.751423 390.04 
z
" clip-path="url(#pbc32b87a69)" style="fill: #fa8072; opacity: 0.5"/>
   </g>
   <g id="patch_156">
    <path d="M 408.766116 390.04 
L 414.780808 390.04 
L 414.780808 390.04 
L 408.766116 390.04 
z
" clip-path="url(#pbc32b87a69)" style="fill: #fa8072; opacity: 0.5"/>
   </g>
   <g id="patch_157">
    <path d="M 414.780808 390.04 
L 420.7955 390.04 
L 420.7955 390.04 
L 414.780808 390.04 
z
" clip-path="url(#pbc32b87a69)" style="fill: #fa8072; opacity: 0.5"/>
   </g>
   <g id="patch_158">
    <path d="M 420.7955 390.04 
L 426.810193 390.04 
L 426.810193 390.04 
L 420.7955 390.04 
z
" clip-path="url(#pbc32b87a69)" style="fill: #fa8072; opacity: 0.5"/>
   </g>
   <g id="patch_159">
    <path d="M 426.810193 390.04 
L 432.824885 390.04 
L 432.824885 390.04 
L 426.810193 390.04 
z
" clip-path="url(#pbc32b87a69)" style="fill: #fa8072; opacity: 0.5"/>
   </g>
   <g id="patch_160">
    <path d="M 432.824885 390.04 
L 438.839578 390.04 
L 438.839578 390.04 
L 432.824885 390.04 
z
" clip-path="url(#pbc32b87a69)" style="fill: #fa8072; opacity: 0.5"/>
   </g>
   <g id="patch_161">
    <path d="M 438.839578 390.04 
L 444.85427 390.04 
L 444.85427 390.04 
L 438.839578 390.04 
z
" clip-path="url(#pbc32b87a69)" style="fill: #fa8072; opacity: 0.5"/>
   </g>
   <g id="patch_162">
    <path d="M 444.85427 390.04 
L 450.868962 390.04 
L 450.868962 390.04 
L 444.85427 390.04 
z
" clip-path="url(#pbc32b87a69)" style="fill: #fa8072; opacity: 0.5"/>
   </g>
   <g id="patch_163">
    <path d="M 450.868962 390.04 
L 456.883655 390.04 
L 456.883655 390.04 
L 450.868962 390.04 
z
" clip-path="url(#pbc32b87a69)" style="fill: #fa8072; opacity: 0.5"/>
   </g>
   <g id="patch_164">
    <path d="M 456.883655 390.04 
L 462.898347 390.04 
L 462.898347 390.04 
L 456.883655 390.04 
z
" clip-path="url(#pbc32b87a69)" style="fill: #fa8072; opacity: 0.5"/>
   </g>
   <g id="patch_165">
    <path d="M 462.898347 390.04 
L 468.913039 390.04 
L 468.913039 390.04 
L 462.898347 390.04 
z
" clip-path="url(#pbc32b87a69)" style="fill: #fa8072; opacity: 0.5"/>
   </g>
   <g id="patch_166">
    <path d="M 468.913039 390.04 
L 474.927732 390.04 
L 474.927732 390.04 
L 468.913039 390.04 
z
" clip-path="url(#pbc32b87a69)" style="fill: #fa8072; opacity: 0.5"/>
   </g>
   <g id="patch_167">
    <path d="M 474.927732 390.04 
L 480.942424 390.04 
L 480.942424 390.04 
L 474.927732 390.04 
z
" clip-path="url(#pbc32b87a69)" style="fill: #fa8072; opacity: 0.5"/>
   </g>
   <g id="patch_168">
    <path d="M 480.942424 390.04 
L 486.957117 390.04 
L 486.957117 390.04 
L 480.942424 390.04 
z
" clip-path="url(#pbc32b87a69)" style="fill: #fa8072; opacity: 0.5"/>
   </g>
   <g id="patch_169">
    <path d="M 486.957117 390.04 
L 492.971809 390.04 
L 492.971809 390.04 
L 486.957117 390.04 
z
" clip-path="url(#pbc32b87a69)" style="fill: #fa8072; opacity: 0.5"/>
   </g>
   <g id="patch_170">
    <path d="M 492.971809 390.04 
L 498.986501 390.04 
L 498.986501 390.04 
L 492.971809 390.04 
z
" clip-path="url(#pbc32b87a69)" style="fill: #fa8072; opacity: 0.5"/>
   </g>
   <g id="patch_171">
    <path d="M 498.986501 390.04 
L 505.001194 390.04 
L 505.001194 390.04 
L 498.986501 390.04 
z
" clip-path="url(#pbc32b87a69)" style="fill: #fa8072; opacity: 0.5"/>
   </g>
   <g id="patch_172">
    <path d="M 505.001194 390.04 
L 511.015886 390.04 
L 511.015886 390.04 
L 505.001194 390.04 
z
" clip-path="url(#pbc32b87a69)" style="fill: #fa8072; opacity: 0.5"/>
   </g>
   <g id="patch_173">
    <path d="M 511.015886 390.04 
L 517.030579 390.04 
L 517.030579 390.04 
L 511.015886 390.04 
z
" clip-path="url(#pbc32b87a69)" style="fill: #fa8072; opacity: 0.5"/>
   </g>
   <g id="patch_174">
    <path d="M 517.030579 390.04 
L 523.045271 390.04 
L 523.045271 390.04 
L 517.030579 390.04 
z
" clip-path="url(#pbc32b87a69)" style="fill: #fa8072; opacity: 0.5"/>
   </g>
   <g id="patch_175">
    <path d="M 523.045271 390.04 
L 529.059963 390.04 
L 529.059963 390.04 
L 523.045271 390.04 
z
" clip-path="url(#pbc32b87a69)" style="fill: #fa8072; opacity: 0.5"/>
   </g>
   <g id="patch_176">
    <path d="M 529.059963 390.04 
L 535.074656 390.04 
L 535.074656 390.04 
L 529.059963 390.04 
z
" clip-path="url(#pbc32b87a69)" style="fill: #fa8072; opacity: 0.5"/>
   </g>
   <g id="patch_177">
    <path d="M 535.074656 390.04 
L 541.089348 390.04 
L 541.089348 390.04 
L 535.074656 390.04 
z
" clip-path="url(#pbc32b87a69)" style="fill: #fa8072; opacity: 0.5"/>
   </g>
   <g id="patch_178">
    <path d="M 541.089348 390.04 
L 547.10404 390.04 
L 547.10404 390.04 
L 541.089348 390.04 
z
" clip-path="url(#pbc32b87a69)" style="fill: #fa8072; opacity: 0.5"/>
   </g>
   <g id="patch_179">
    <path d="M 547.10404 390.04 
L 553.118733 390.04 
L 553.118733 390.04 
L 547.10404 390.04 
z
" clip-path="url(#pbc32b87a69)" style="fill: #fa8072; opacity: 0.5"/>
   </g>
   <g id="patch_180">
    <path d="M 553.118733 390.04 
L 559.133425 390.04 
L 559.133425 390.04 
L 553.118733 390.04 
z
" clip-path="url(#pbc32b87a69)" style="fill: #fa8072; opacity: 0.5"/>
   </g>
   <g id="patch_181">
    <path d="M 559.133425 390.04 
L 565.148118 390.04 
L 565.148118 390.04 
L 559.133425 390.04 
z
" clip-path="url(#pbc32b87a69)" style="fill: #fa8072; opacity: 0.5"/>
   </g>
   <g id="patch_182">
    <path d="M 565.148118 390.04 
L 571.16281 390.04 
L 571.16281 390.04 
L 565.148118 390.04 
z
" clip-path="url(#pbc32b87a69)" style="fill: #fa8072; opacity: 0.5"/>
   </g>
   <g id="patch_183">
    <path d="M 571.16281 390.04 
L 577.177502 390.04 
L 577.177502 390.04 
L 571.16281 390.04 
z
" clip-path="url(#pbc32b87a69)" style="fill: #fa8072; opacity: 0.5"/>
   </g>
   <g id="patch_184">
    <path d="M 577.177502 390.04 
L 583.192195 390.04 
L 583.192195 390.04 
L 577.177502 390.04 
z
" clip-path="url(#pbc32b87a69)" style="fill: #fa8072; opacity: 0.5"/>
   </g>
   <g id="patch_185">
    <path d="M 583.192195 390.04 
L 589.206887 390.04 
L 589.206887 390.04 
L 583.192195 390.04 
z
" clip-path="url(#pbc32b87a69)" style="fill: #fa8072; opacity: 0.5"/>
   </g>
   <g id="patch_186">
    <path d="M 589.206887 390.04 
L 595.221579 390.04 
L 595.221579 390.04 
L 589.206887 390.04 
z
" clip-path="url(#pbc32b87a69)" style="fill: #fa8072; opacity: 0.5"/>
   </g>
   <g id="patch_187">
    <path d="M 595.221579 390.04 
L 601.236272 390.04 
L 601.236272 390.04 
L 595.221579 390.04 
z
" clip-path="url(#pbc32b87a69)" style="fill: #fa8072; opacity: 0.5"/>
   </g>
   <g id="patch_188">
    <path d="M 601.236272 390.04 
L 607.250964 390.04 
L 607.250964 390.04 
L 601.236272 390.04 
z
" clip-path="url(#pbc32b87a69)" style="fill: #fa8072; opacity: 0.5"/>
   </g>
   <g id="patch_189">
    <path d="M 607.250964 390.04 
L 613.265657 390.04 
L 613.265657 390.04 
L 607.250964 390.04 
z
" clip-path="url(#pbc32b87a69)" style="fill: #fa8072; opacity: 0.5"/>
   </g>
   <g id="patch_190">
    <path d="M 613.265657 390.04 
L 619.280349 390.04 
L 619.280349 390.04 
L 613.265657 390.04 
z
" clip-path="url(#pbc32b87a69)" style="fill: #fa8072; opacity: 0.5"/>
   </g>
   <g id="patch_191">
    <path d="M 619.280349 390.04 
L 625.295041 390.04 
L 625.295041 390.04 
L 619.280349 390.04 
z
" clip-path="url(#pbc32b87a69)" style="fill: #fa8072; opacity: 0.5"/>
   </g>
   <g id="patch_192">
    <path d="M 625.295041 390.04 
L 631.309734 390.04 
L 631.309734 390.04 
L 625.295041 390.04 
z
" clip-path="url(#pbc32b87a69)" style="fill: #fa8072; opacity: 0.5"/>
   </g>
   <g id="patch_193">
    <path d="M 631.309734 390.04 
L 637.324426 390.04 
L 637.324426 390.04 
L 631.309734 390.04 
z
" clip-path="url(#pbc32b87a69)" style="fill: #fa8072; opacity: 0.5"/>
   </g>
   <g id="patch_194">
    <path d="M 637.324426 390.04 
L 643.339118 390.04 
L 643.339118 390.04 
L 637.324426 390.04 
z
" clip-path="url(#pbc32b87a69)" style="fill: #fa8072; opacity: 0.5"/>
   </g>
   <g id="patch_195">
    <path d="M 643.339118 390.04 
L 649.353811 390.04 
L 649.353811 390.04 
L 643.339118 390.04 
z
" clip-path="url(#pbc32b87a69)" style="fill: #fa8072; opacity: 0.5"/>
   </g>
   <g id="patch_196">
    <path d="M 649.353811 390.04 
L 655.368503 390.04 
L 655.368503 390.04 
L 649.353811 390.04 
z
" clip-path="url(#pbc32b87a69)" style="fill: #fa8072; opacity: 0.5"/>
   </g>
   <g id="patch_197">
    <path d="M 655.368503 390.04 
L 661.383196 390.04 
L 661.383196 390.04 
L 655.368503 390.04 
z
" clip-path="url(#pbc32b87a69)" style="fill: #fa8072; opacity: 0.5"/>
   </g>
   <g id="patch_198">
    <path d="M 661.383196 390.04 
L 667.397888 390.04 
L 667.397888 390.04 
L 661.383196 390.04 
z
" clip-path="url(#pbc32b87a69)" style="fill: #fa8072; opacity: 0.5"/>
   </g>
   <g id="patch_199">
    <path d="M 667.397888 390.04 
L 673.41258 390.04 
L 673.41258 390.04 
L 667.397888 390.04 
z
" clip-path="url(#pbc32b87a69)" style="fill: #fa8072; opacity: 0.5"/>
   </g>
   <g id="patch_200">
    <path d="M 673.41258 390.04 
L 679.427273 390.04 
L 679.427273 390.04 
L 673.41258 390.04 
z
" clip-path="url(#pbc32b87a69)" style="fill: #fa8072; opacity: 0.5"/>
   </g>
   <g id="matplotlib.axis_1">
    <g id="xtick_1">
     <g id="line2d_1">
      <defs>
       <path id="m8db99386f3" d="M 0 0 
L 0 3.5 
" style="stroke: #000000; stroke-width: 0.8"/>
      </defs>
      <g>
       <use xlink:href="#m8db99386f3" x="72.063636" y="390.04" style="stroke: #000000; stroke-width: 0.8"/>
      </g>
     </g>
     <g id="text_1">
      <!-- 0 -->
      <g transform="translate(68.882386 404.638438) scale(0.1 -0.1)">
       <defs>
        <path id="DejaVuSans-30" d="M 2034 4250 
Q 1547 4250 1301 3770 
Q 1056 3291 1056 2328 
Q 1056 1369 1301 889 
Q 1547 409 2034 409 
Q 2525 409 2770 889 
Q 3016 1369 3016 2328 
Q 3016 3291 2770 3770 
Q 2525 4250 2034 4250 
z
M 2034 4750 
Q 2819 4750 3233 4129 
Q 3647 3509 3647 2328 
Q 3647 1150 3233 529 
Q 2819 -91 2034 -91 
Q 1250 -91 836 529 
Q 422 1150 422 2328 
Q 422 3509 836 4129 
Q 1250 4750 2034 4750 
z
" transform="scale(0.015625)"/>
       </defs>
       <use xlink:href="#DejaVuSans-30"/>
      </g>
     </g>
    </g>
    <g id="xtick_2">
     <g id="line2d_2">
      <g>
       <use xlink:href="#m8db99386f3" x="146.495455" y="390.04" style="stroke: #000000; stroke-width: 0.8"/>
      </g>
     </g>
     <g id="text_2">
      <!-- 25 -->
      <g transform="translate(140.132955 404.638438) scale(0.1 -0.1)">
       <defs>
        <path id="DejaVuSans-32" d="M 1228 531 
L 3431 531 
L 3431 0 
L 469 0 
L 469 531 
Q 828 903 1448 1529 
Q 2069 2156 2228 2338 
Q 2531 2678 2651 2914 
Q 2772 3150 2772 3378 
Q 2772 3750 2511 3984 
Q 2250 4219 1831 4219 
Q 1534 4219 1204 4116 
Q 875 4013 500 3803 
L 500 4441 
Q 881 4594 1212 4672 
Q 1544 4750 1819 4750 
Q 2544 4750 2975 4387 
Q 3406 4025 3406 3419 
Q 3406 3131 3298 2873 
Q 3191 2616 2906 2266 
Q 2828 2175 2409 1742 
Q 1991 1309 1228 531 
z
" transform="scale(0.015625)"/>
        <path id="DejaVuSans-35" d="M 691 4666 
L 3169 4666 
L 3169 4134 
L 1269 4134 
L 1269 2991 
Q 1406 3038 1543 3061 
Q 1681 3084 1819 3084 
Q 2600 3084 3056 2656 
Q 3513 2228 3513 1497 
Q 3513 744 3044 326 
Q 2575 -91 1722 -91 
Q 1428 -91 1123 -41 
Q 819 9 494 109 
L 494 744 
Q 775 591 1075 516 
Q 1375 441 1709 441 
Q 2250 441 2565 725 
Q 2881 1009 2881 1497 
Q 2881 1984 2565 2268 
Q 2250 2553 1709 2553 
Q 1456 2553 1204 2497 
Q 953 2441 691 2322 
L 691 4666 
z
" transform="scale(0.015625)"/>
       </defs>
       <use xlink:href="#DejaVuSans-32"/>
       <use xlink:href="#DejaVuSans-35" transform="translate(63.623047 0)"/>
      </g>
     </g>
    </g>
    <g id="xtick_3">
     <g id="line2d_3">
      <g>
       <use xlink:href="#m8db99386f3" x="220.927273" y="390.04" style="stroke: #000000; stroke-width: 0.8"/>
      </g>
     </g>
     <g id="text_3">
      <!-- 50 -->
      <g transform="translate(214.564773 404.638438) scale(0.1 -0.1)">
       <use xlink:href="#DejaVuSans-35"/>
       <use xlink:href="#DejaVuSans-30" transform="translate(63.623047 0)"/>
      </g>
     </g>
    </g>
    <g id="xtick_4">
     <g id="line2d_4">
      <g>
       <use xlink:href="#m8db99386f3" x="295.359091" y="390.04" style="stroke: #000000; stroke-width: 0.8"/>
      </g>
     </g>
     <g id="text_4">
      <!-- 75 -->
      <g transform="translate(288.996591 404.638438) scale(0.1 -0.1)">
       <defs>
        <path id="DejaVuSans-37" d="M 525 4666 
L 3525 4666 
L 3525 4397 
L 1831 0 
L 1172 0 
L 2766 4134 
L 525 4134 
L 525 4666 
z
" transform="scale(0.015625)"/>
       </defs>
       <use xlink:href="#DejaVuSans-37"/>
       <use xlink:href="#DejaVuSans-35" transform="translate(63.623047 0)"/>
      </g>
     </g>
    </g>
    <g id="xtick_5">
     <g id="line2d_5">
      <g>
       <use xlink:href="#m8db99386f3" x="369.790909" y="390.04" style="stroke: #000000; stroke-width: 0.8"/>
      </g>
     </g>
     <g id="text_5">
      <!-- 100 -->
      <g transform="translate(360.247159 404.638438) scale(0.1 -0.1)">
       <defs>
        <path id="DejaVuSans-31" d="M 794 531 
L 1825 531 
L 1825 4091 
L 703 3866 
L 703 4441 
L 1819 4666 
L 2450 4666 
L 2450 531 
L 3481 531 
L 3481 0 
L 794 0 
L 794 531 
z
" transform="scale(0.015625)"/>
       </defs>
       <use xlink:href="#DejaVuSans-31"/>
       <use xlink:href="#DejaVuSans-30" transform="translate(63.623047 0)"/>
       <use xlink:href="#DejaVuSans-30" transform="translate(127.246094 0)"/>
      </g>
     </g>
    </g>
    <g id="xtick_6">
     <g id="line2d_6">
      <g>
       <use xlink:href="#m8db99386f3" x="444.222727" y="390.04" style="stroke: #000000; stroke-width: 0.8"/>
      </g>
     </g>
     <g id="text_6">
      <!-- 125 -->
      <g transform="translate(434.678977 404.638438) scale(0.1 -0.1)">
       <use xlink:href="#DejaVuSans-31"/>
       <use xlink:href="#DejaVuSans-32" transform="translate(63.623047 0)"/>
       <use xlink:href="#DejaVuSans-35" transform="translate(127.246094 0)"/>
      </g>
     </g>
    </g>
    <g id="xtick_7">
     <g id="line2d_7">
      <g>
       <use xlink:href="#m8db99386f3" x="518.654545" y="390.04" style="stroke: #000000; stroke-width: 0.8"/>
      </g>
     </g>
     <g id="text_7">
      <!-- 150 -->
      <g transform="translate(509.110795 404.638438) scale(0.1 -0.1)">
       <use xlink:href="#DejaVuSans-31"/>
       <use xlink:href="#DejaVuSans-35" transform="translate(63.623047 0)"/>
       <use xlink:href="#DejaVuSans-30" transform="translate(127.246094 0)"/>
      </g>
     </g>
    </g>
    <g id="xtick_8">
     <g id="line2d_8">
      <g>
       <use xlink:href="#m8db99386f3" x="593.086364" y="390.04" style="stroke: #000000; stroke-width: 0.8"/>
      </g>
     </g>
     <g id="text_8">
      <!-- 175 -->
      <g transform="translate(583.542614 404.638438) scale(0.1 -0.1)">
       <use xlink:href="#DejaVuSans-31"/>
       <use xlink:href="#DejaVuSans-37" transform="translate(63.623047 0)"/>
       <use xlink:href="#DejaVuSans-35" transform="translate(127.246094 0)"/>
      </g>
     </g>
    </g>
    <g id="xtick_9">
     <g id="line2d_9">
      <g>
       <use xlink:href="#m8db99386f3" x="667.518182" y="390.04" style="stroke: #000000; stroke-width: 0.8"/>
      </g>
     </g>
     <g id="text_9">
      <!-- 200 -->
      <g transform="translate(657.974432 404.638438) scale(0.1 -0.1)">
       <use xlink:href="#DejaVuSans-32"/>
       <use xlink:href="#DejaVuSans-30" transform="translate(63.623047 0)"/>
       <use xlink:href="#DejaVuSans-30" transform="translate(127.246094 0)"/>
      </g>
     </g>
    </g>
    <g id="text_10">
     <!-- Alignment Score -->
     <g transform="translate(340.491406 418.316562) scale(0.1 -0.1)">
      <defs>
       <path id="DejaVuSans-41" d="M 2188 4044 
L 1331 1722 
L 3047 1722 
L 2188 4044 
z
M 1831 4666 
L 2547 4666 
L 4325 0 
L 3669 0 
L 3244 1197 
L 1141 1197 
L 716 0 
L 50 0 
L 1831 4666 
z
" transform="scale(0.015625)"/>
       <path id="DejaVuSans-6c" d="M 603 4863 
L 1178 4863 
L 1178 0 
L 603 0 
L 603 4863 
z
" transform="scale(0.015625)"/>
       <path id="DejaVuSans-69" d="M 603 3500 
L 1178 3500 
L 1178 0 
L 603 0 
L 603 3500 
z
M 603 4863 
L 1178 4863 
L 1178 4134 
L 603 4134 
L 603 4863 
z
" transform="scale(0.015625)"/>
       <path id="DejaVuSans-67" d="M 2906 1791 
Q 2906 2416 2648 2759 
Q 2391 3103 1925 3103 
Q 1463 3103 1205 2759 
Q 947 2416 947 1791 
Q 947 1169 1205 825 
Q 1463 481 1925 481 
Q 2391 481 2648 825 
Q 2906 1169 2906 1791 
z
M 3481 434 
Q 3481 -459 3084 -895 
Q 2688 -1331 1869 -1331 
Q 1566 -1331 1297 -1286 
Q 1028 -1241 775 -1147 
L 775 -588 
Q 1028 -725 1275 -790 
Q 1522 -856 1778 -856 
Q 2344 -856 2625 -561 
Q 2906 -266 2906 331 
L 2906 616 
Q 2728 306 2450 153 
Q 2172 0 1784 0 
Q 1141 0 747 490 
Q 353 981 353 1791 
Q 353 2603 747 3093 
Q 1141 3584 1784 3584 
Q 2172 3584 2450 3431 
Q 2728 3278 2906 2969 
L 2906 3500 
L 3481 3500 
L 3481 434 
z
" transform="scale(0.015625)"/>
       <path id="DejaVuSans-6e" d="M 3513 2113 
L 3513 0 
L 2938 0 
L 2938 2094 
Q 2938 2591 2744 2837 
Q 2550 3084 2163 3084 
Q 1697 3084 1428 2787 
Q 1159 2491 1159 1978 
L 1159 0 
L 581 0 
L 581 3500 
L 1159 3500 
L 1159 2956 
Q 1366 3272 1645 3428 
Q 1925 3584 2291 3584 
Q 2894 3584 3203 3211 
Q 3513 2838 3513 2113 
z
" transform="scale(0.015625)"/>
       <path id="DejaVuSans-6d" d="M 3328 2828 
Q 3544 3216 3844 3400 
Q 4144 3584 4550 3584 
Q 5097 3584 5394 3201 
Q 5691 2819 5691 2113 
L 5691 0 
L 5113 0 
L 5113 2094 
Q 5113 2597 4934 2840 
Q 4756 3084 4391 3084 
Q 3944 3084 3684 2787 
Q 3425 2491 3425 1978 
L 3425 0 
L 2847 0 
L 2847 2094 
Q 2847 2600 2669 2842 
Q 2491 3084 2119 3084 
Q 1678 3084 1418 2786 
Q 1159 2488 1159 1978 
L 1159 0 
L 581 0 
L 581 3500 
L 1159 3500 
L 1159 2956 
Q 1356 3278 1631 3431 
Q 1906 3584 2284 3584 
Q 2666 3584 2933 3390 
Q 3200 3197 3328 2828 
z
" transform="scale(0.015625)"/>
       <path id="DejaVuSans-65" d="M 3597 1894 
L 3597 1613 
L 953 1613 
Q 991 1019 1311 708 
Q 1631 397 2203 397 
Q 2534 397 2845 478 
Q 3156 559 3463 722 
L 3463 178 
Q 3153 47 2828 -22 
Q 2503 -91 2169 -91 
Q 1331 -91 842 396 
Q 353 884 353 1716 
Q 353 2575 817 3079 
Q 1281 3584 2069 3584 
Q 2775 3584 3186 3129 
Q 3597 2675 3597 1894 
z
M 3022 2063 
Q 3016 2534 2758 2815 
Q 2500 3097 2075 3097 
Q 1594 3097 1305 2825 
Q 1016 2553 972 2059 
L 3022 2063 
z
" transform="scale(0.015625)"/>
       <path id="DejaVuSans-74" d="M 1172 4494 
L 1172 3500 
L 2356 3500 
L 2356 3053 
L 1172 3053 
L 1172 1153 
Q 1172 725 1289 603 
Q 1406 481 1766 481 
L 2356 481 
L 2356 0 
L 1766 0 
Q 1100 0 847 248 
Q 594 497 594 1153 
L 594 3053 
L 172 3053 
L 172 3500 
L 594 3500 
L 594 4494 
L 1172 4494 
z
" transform="scale(0.015625)"/>
       <path id="DejaVuSans-20" transform="scale(0.015625)"/>
       <path id="DejaVuSans-53" d="M 3425 4513 
L 3425 3897 
Q 3066 4069 2747 4153 
Q 2428 4238 2131 4238 
Q 1616 4238 1336 4038 
Q 1056 3838 1056 3469 
Q 1056 3159 1242 3001 
Q 1428 2844 1947 2747 
L 2328 2669 
Q 3034 2534 3370 2195 
Q 3706 1856 3706 1288 
Q 3706 609 3251 259 
Q 2797 -91 1919 -91 
Q 1588 -91 1214 -16 
Q 841 59 441 206 
L 441 856 
Q 825 641 1194 531 
Q 1563 422 1919 422 
Q 2459 422 2753 634 
Q 3047 847 3047 1241 
Q 3047 1584 2836 1778 
Q 2625 1972 2144 2069 
L 1759 2144 
Q 1053 2284 737 2584 
Q 422 2884 422 3419 
Q 422 4038 858 4394 
Q 1294 4750 2059 4750 
Q 2388 4750 2728 4690 
Q 3069 4631 3425 4513 
z
" transform="scale(0.015625)"/>
       <path id="DejaVuSans-63" d="M 3122 3366 
L 3122 2828 
Q 2878 2963 2633 3030 
Q 2388 3097 2138 3097 
Q 1578 3097 1268 2742 
Q 959 2388 959 1747 
Q 959 1106 1268 751 
Q 1578 397 2138 397 
Q 2388 397 2633 464 
Q 2878 531 3122 666 
L 3122 134 
Q 2881 22 2623 -34 
Q 2366 -91 2075 -91 
Q 1284 -91 818 406 
Q 353 903 353 1747 
Q 353 2603 823 3093 
Q 1294 3584 2113 3584 
Q 2378 3584 2631 3529 
Q 2884 3475 3122 3366 
z
" transform="scale(0.015625)"/>
       <path id="DejaVuSans-6f" d="M 1959 3097 
Q 1497 3097 1228 2736 
Q 959 2375 959 1747 
Q 959 1119 1226 758 
Q 1494 397 1959 397 
Q 2419 397 2687 759 
Q 2956 1122 2956 1747 
Q 2956 2369 2687 2733 
Q 2419 3097 1959 3097 
z
M 1959 3584 
Q 2709 3584 3137 3096 
Q 3566 2609 3566 1747 
Q 3566 888 3137 398 
Q 2709 -91 1959 -91 
Q 1206 -91 779 398 
Q 353 888 353 1747 
Q 353 2609 779 3096 
Q 1206 3584 1959 3584 
z
" transform="scale(0.015625)"/>
       <path id="DejaVuSans-72" d="M 2631 2963 
Q 2534 3019 2420 3045 
Q 2306 3072 2169 3072 
Q 1681 3072 1420 2755 
Q 1159 2438 1159 1844 
L 1159 0 
L 581 0 
L 581 3500 
L 1159 3500 
L 1159 2956 
Q 1341 3275 1631 3429 
Q 1922 3584 2338 3584 
Q 2397 3584 2469 3576 
Q 2541 3569 2628 3553 
L 2631 2963 
z
" transform="scale(0.015625)"/>
      </defs>
      <use xlink:href="#DejaVuSans-41"/>
      <use xlink:href="#DejaVuSans-6c" transform="translate(68.408203 0)"/>
      <use xlink:href="#DejaVuSans-69" transform="translate(96.191406 0)"/>
      <use xlink:href="#DejaVuSans-67" transform="translate(123.974609 0)"/>
      <use xlink:href="#DejaVuSans-6e" transform="translate(187.451172 0)"/>
      <use xlink:href="#DejaVuSans-6d" transform="translate(250.830078 0)"/>
      <use xlink:href="#DejaVuSans-65" transform="translate(348.242188 0)"/>
      <use xlink:href="#DejaVuSans-6e" transform="translate(409.765625 0)"/>
      <use xlink:href="#DejaVuSans-74" transform="translate(473.144531 0)"/>
      <use xlink:href="#DejaVuSans-20" transform="translate(512.353516 0)"/>
      <use xlink:href="#DejaVuSans-53" transform="translate(544.140625 0)"/>
      <use xlink:href="#DejaVuSans-63" transform="translate(607.617188 0)"/>
      <use xlink:href="#DejaVuSans-6f" transform="translate(662.597656 0)"/>
      <use xlink:href="#DejaVuSans-72" transform="translate(723.779297 0)"/>
      <use xlink:href="#DejaVuSans-65" transform="translate(762.642578 0)"/>
     </g>
    </g>
   </g>
   <g id="matplotlib.axis_2">
    <g id="ytick_1">
     <g id="line2d_10">
      <defs>
       <path id="mf494587986" d="M 0 0 
L -3.5 0 
" style="stroke: #000000; stroke-width: 0.8"/>
      </defs>
      <g>
       <use xlink:href="#mf494587986" x="54.2" y="390.04" style="stroke: #000000; stroke-width: 0.8"/>
      </g>
     </g>
     <g id="text_11">
      <!-- 0.00 -->
      <g transform="translate(24.934375 393.839219) scale(0.1 -0.1)">
       <defs>
        <path id="DejaVuSans-2e" d="M 684 794 
L 1344 794 
L 1344 0 
L 684 0 
L 684 794 
z
" transform="scale(0.015625)"/>
       </defs>
       <use xlink:href="#DejaVuSans-30"/>
       <use xlink:href="#DejaVuSans-2e" transform="translate(63.623047 0)"/>
       <use xlink:href="#DejaVuSans-30" transform="translate(95.410156 0)"/>
       <use xlink:href="#DejaVuSans-30" transform="translate(159.033203 0)"/>
      </g>
     </g>
    </g>
    <g id="ytick_2">
     <g id="line2d_11">
      <g>
       <use xlink:href="#mf494587986" x="54.2" y="319.438637" style="stroke: #000000; stroke-width: 0.8"/>
      </g>
     </g>
     <g id="text_12">
      <!-- 0.02 -->
      <g transform="translate(24.934375 323.237856) scale(0.1 -0.1)">
       <use xlink:href="#DejaVuSans-30"/>
       <use xlink:href="#DejaVuSans-2e" transform="translate(63.623047 0)"/>
       <use xlink:href="#DejaVuSans-30" transform="translate(95.410156 0)"/>
       <use xlink:href="#DejaVuSans-32" transform="translate(159.033203 0)"/>
      </g>
     </g>
    </g>
    <g id="ytick_3">
     <g id="line2d_12">
      <g>
       <use xlink:href="#mf494587986" x="54.2" y="248.837274" style="stroke: #000000; stroke-width: 0.8"/>
      </g>
     </g>
     <g id="text_13">
      <!-- 0.04 -->
      <g transform="translate(24.934375 252.636493) scale(0.1 -0.1)">
       <defs>
        <path id="DejaVuSans-34" d="M 2419 4116 
L 825 1625 
L 2419 1625 
L 2419 4116 
z
M 2253 4666 
L 3047 4666 
L 3047 1625 
L 3713 1625 
L 3713 1100 
L 3047 1100 
L 3047 0 
L 2419 0 
L 2419 1100 
L 313 1100 
L 313 1709 
L 2253 4666 
z
" transform="scale(0.015625)"/>
       </defs>
       <use xlink:href="#DejaVuSans-30"/>
       <use xlink:href="#DejaVuSans-2e" transform="translate(63.623047 0)"/>
       <use xlink:href="#DejaVuSans-30" transform="translate(95.410156 0)"/>
       <use xlink:href="#DejaVuSans-34" transform="translate(159.033203 0)"/>
      </g>
     </g>
    </g>
    <g id="ytick_4">
     <g id="line2d_13">
      <g>
       <use xlink:href="#mf494587986" x="54.2" y="178.235911" style="stroke: #000000; stroke-width: 0.8"/>
      </g>
     </g>
     <g id="text_14">
      <!-- 0.06 -->
      <g transform="translate(24.934375 182.03513) scale(0.1 -0.1)">
       <defs>
        <path id="DejaVuSans-36" d="M 2113 2584 
Q 1688 2584 1439 2293 
Q 1191 2003 1191 1497 
Q 1191 994 1439 701 
Q 1688 409 2113 409 
Q 2538 409 2786 701 
Q 3034 994 3034 1497 
Q 3034 2003 2786 2293 
Q 2538 2584 2113 2584 
z
M 3366 4563 
L 3366 3988 
Q 3128 4100 2886 4159 
Q 2644 4219 2406 4219 
Q 1781 4219 1451 3797 
Q 1122 3375 1075 2522 
Q 1259 2794 1537 2939 
Q 1816 3084 2150 3084 
Q 2853 3084 3261 2657 
Q 3669 2231 3669 1497 
Q 3669 778 3244 343 
Q 2819 -91 2113 -91 
Q 1303 -91 875 529 
Q 447 1150 447 2328 
Q 447 3434 972 4092 
Q 1497 4750 2381 4750 
Q 2619 4750 2861 4703 
Q 3103 4656 3366 4563 
z
" transform="scale(0.015625)"/>
       </defs>
       <use xlink:href="#DejaVuSans-30"/>
       <use xlink:href="#DejaVuSans-2e" transform="translate(63.623047 0)"/>
       <use xlink:href="#DejaVuSans-30" transform="translate(95.410156 0)"/>
       <use xlink:href="#DejaVuSans-36" transform="translate(159.033203 0)"/>
      </g>
     </g>
    </g>
    <g id="ytick_5">
     <g id="line2d_14">
      <g>
       <use xlink:href="#mf494587986" x="54.2" y="107.634548" style="stroke: #000000; stroke-width: 0.8"/>
      </g>
     </g>
     <g id="text_15">
      <!-- 0.08 -->
      <g transform="translate(24.934375 111.433767) scale(0.1 -0.1)">
       <defs>
        <path id="DejaVuSans-38" d="M 2034 2216 
Q 1584 2216 1326 1975 
Q 1069 1734 1069 1313 
Q 1069 891 1326 650 
Q 1584 409 2034 409 
Q 2484 409 2743 651 
Q 3003 894 3003 1313 
Q 3003 1734 2745 1975 
Q 2488 2216 2034 2216 
z
M 1403 2484 
Q 997 2584 770 2862 
Q 544 3141 544 3541 
Q 544 4100 942 4425 
Q 1341 4750 2034 4750 
Q 2731 4750 3128 4425 
Q 3525 4100 3525 3541 
Q 3525 3141 3298 2862 
Q 3072 2584 2669 2484 
Q 3125 2378 3379 2068 
Q 3634 1759 3634 1313 
Q 3634 634 3220 271 
Q 2806 -91 2034 -91 
Q 1263 -91 848 271 
Q 434 634 434 1313 
Q 434 1759 690 2068 
Q 947 2378 1403 2484 
z
M 1172 3481 
Q 1172 3119 1398 2916 
Q 1625 2713 2034 2713 
Q 2441 2713 2670 2916 
Q 2900 3119 2900 3481 
Q 2900 3844 2670 4047 
Q 2441 4250 2034 4250 
Q 1625 4250 1398 4047 
Q 1172 3844 1172 3481 
z
" transform="scale(0.015625)"/>
       </defs>
       <use xlink:href="#DejaVuSans-30"/>
       <use xlink:href="#DejaVuSans-2e" transform="translate(63.623047 0)"/>
       <use xlink:href="#DejaVuSans-30" transform="translate(95.410156 0)"/>
       <use xlink:href="#DejaVuSans-38" transform="translate(159.033203 0)"/>
      </g>
     </g>
    </g>
    <g id="ytick_6">
     <g id="line2d_15">
      <g>
       <use xlink:href="#mf494587986" x="54.2" y="37.033185" style="stroke: #000000; stroke-width: 0.8"/>
      </g>
     </g>
     <g id="text_16">
      <!-- 0.10 -->
      <g transform="translate(24.934375 40.832404) scale(0.1 -0.1)">
       <use xlink:href="#DejaVuSans-30"/>
       <use xlink:href="#DejaVuSans-2e" transform="translate(63.623047 0)"/>
       <use xlink:href="#DejaVuSans-31" transform="translate(95.410156 0)"/>
       <use xlink:href="#DejaVuSans-30" transform="translate(159.033203 0)"/>
      </g>
     </g>
    </g>
    <g id="text_17">
     <!-- Density -->
     <g transform="translate(18.854688 226.748594) rotate(-90) scale(0.1 -0.1)">
      <defs>
       <path id="DejaVuSans-44" d="M 1259 4147 
L 1259 519 
L 2022 519 
Q 2988 519 3436 956 
Q 3884 1394 3884 2338 
Q 3884 3275 3436 3711 
Q 2988 4147 2022 4147 
L 1259 4147 
z
M 628 4666 
L 1925 4666 
Q 3281 4666 3915 4102 
Q 4550 3538 4550 2338 
Q 4550 1131 3912 565 
Q 3275 0 1925 0 
L 628 0 
L 628 4666 
z
" transform="scale(0.015625)"/>
       <path id="DejaVuSans-73" d="M 2834 3397 
L 2834 2853 
Q 2591 2978 2328 3040 
Q 2066 3103 1784 3103 
Q 1356 3103 1142 2972 
Q 928 2841 928 2578 
Q 928 2378 1081 2264 
Q 1234 2150 1697 2047 
L 1894 2003 
Q 2506 1872 2764 1633 
Q 3022 1394 3022 966 
Q 3022 478 2636 193 
Q 2250 -91 1575 -91 
Q 1294 -91 989 -36 
Q 684 19 347 128 
L 347 722 
Q 666 556 975 473 
Q 1284 391 1588 391 
Q 1994 391 2212 530 
Q 2431 669 2431 922 
Q 2431 1156 2273 1281 
Q 2116 1406 1581 1522 
L 1381 1569 
Q 847 1681 609 1914 
Q 372 2147 372 2553 
Q 372 3047 722 3315 
Q 1072 3584 1716 3584 
Q 2034 3584 2315 3537 
Q 2597 3491 2834 3397 
z
" transform="scale(0.015625)"/>
       <path id="DejaVuSans-79" d="M 2059 -325 
Q 1816 -950 1584 -1140 
Q 1353 -1331 966 -1331 
L 506 -1331 
L 506 -850 
L 844 -850 
Q 1081 -850 1212 -737 
Q 1344 -625 1503 -206 
L 1606 56 
L 191 3500 
L 800 3500 
L 1894 763 
L 2988 3500 
L 3597 3500 
L 2059 -325 
z
" transform="scale(0.015625)"/>
      </defs>
      <use xlink:href="#DejaVuSans-44"/>
      <use xlink:href="#DejaVuSans-65" transform="translate(77.001953 0)"/>
      <use xlink:href="#DejaVuSans-6e" transform="translate(138.525391 0)"/>
      <use xlink:href="#DejaVuSans-73" transform="translate(201.904297 0)"/>
      <use xlink:href="#DejaVuSans-69" transform="translate(254.003906 0)"/>
      <use xlink:href="#DejaVuSans-74" transform="translate(281.787109 0)"/>
      <use xlink:href="#DejaVuSans-79" transform="translate(320.996094 0)"/>
     </g>
    </g>
   </g>
   <g id="line2d_16">
    <path d="M 161.381818 390.04 
L 161.381818 25.44 
" clip-path="url(#pbc32b87a69)" style="fill: none; stroke-dasharray: 7.4,3.2; stroke-dashoffset: 0; stroke: #000000; stroke-width: 2"/>
   </g>
   <g id="patch_201">
    <path d="M 54.2 390.04 
L 54.2 25.44 
" style="fill: none; stroke: #000000; stroke-width: 0.8; stroke-linejoin: miter; stroke-linecap: square"/>
   </g>
   <g id="patch_202">
    <path d="M 709.2 390.04 
L 709.2 25.44 
" style="fill: none; stroke: #000000; stroke-width: 0.8; stroke-linejoin: miter; stroke-linecap: square"/>
   </g>
   <g id="patch_203">
    <path d="M 54.2 390.04 
L 709.2 390.04 
" style="fill: none; stroke: #000000; stroke-width: 0.8; stroke-linejoin: miter; stroke-linecap: square"/>
   </g>
   <g id="patch_204">
    <path d="M 54.2 25.44 
L 709.2 25.44 
" style="fill: none; stroke: #000000; stroke-width: 0.8; stroke-linejoin: miter; stroke-linecap: square"/>
   </g>
   <g id="text_18">
    <!-- Alignment Score Distribution with 95% Specificity Threshold -->
    <g transform="translate(201.158125 19.44) scale(0.12 -0.12)">
     <defs>
      <path id="DejaVuSans-62" d="M 3116 1747 
Q 3116 2381 2855 2742 
Q 2594 3103 2138 3103 
Q 1681 3103 1420 2742 
Q 1159 2381 1159 1747 
Q 1159 1113 1420 752 
Q 1681 391 2138 391 
Q 2594 391 2855 752 
Q 3116 1113 3116 1747 
z
M 1159 2969 
Q 1341 3281 1617 3432 
Q 1894 3584 2278 3584 
Q 2916 3584 3314 3078 
Q 3713 2572 3713 1747 
Q 3713 922 3314 415 
Q 2916 -91 2278 -91 
Q 1894 -91 1617 61 
Q 1341 213 1159 525 
L 1159 0 
L 581 0 
L 581 4863 
L 1159 4863 
L 1159 2969 
z
" transform="scale(0.015625)"/>
      <path id="DejaVuSans-75" d="M 544 1381 
L 544 3500 
L 1119 3500 
L 1119 1403 
Q 1119 906 1312 657 
Q 1506 409 1894 409 
Q 2359 409 2629 706 
Q 2900 1003 2900 1516 
L 2900 3500 
L 3475 3500 
L 3475 0 
L 2900 0 
L 2900 538 
Q 2691 219 2414 64 
Q 2138 -91 1772 -91 
Q 1169 -91 856 284 
Q 544 659 544 1381 
z
M 1991 3584 
L 1991 3584 
z
" transform="scale(0.015625)"/>
      <path id="DejaVuSans-77" d="M 269 3500 
L 844 3500 
L 1563 769 
L 2278 3500 
L 2956 3500 
L 3675 769 
L 4391 3500 
L 4966 3500 
L 4050 0 
L 3372 0 
L 2619 2869 
L 1863 0 
L 1184 0 
L 269 3500 
z
" transform="scale(0.015625)"/>
      <path id="DejaVuSans-68" d="M 3513 2113 
L 3513 0 
L 2938 0 
L 2938 2094 
Q 2938 2591 2744 2837 
Q 2550 3084 2163 3084 
Q 1697 3084 1428 2787 
Q 1159 2491 1159 1978 
L 1159 0 
L 581 0 
L 581 4863 
L 1159 4863 
L 1159 2956 
Q 1366 3272 1645 3428 
Q 1925 3584 2291 3584 
Q 2894 3584 3203 3211 
Q 3513 2838 3513 2113 
z
" transform="scale(0.015625)"/>
      <path id="DejaVuSans-39" d="M 703 97 
L 703 672 
Q 941 559 1184 500 
Q 1428 441 1663 441 
Q 2288 441 2617 861 
Q 2947 1281 2994 2138 
Q 2813 1869 2534 1725 
Q 2256 1581 1919 1581 
Q 1219 1581 811 2004 
Q 403 2428 403 3163 
Q 403 3881 828 4315 
Q 1253 4750 1959 4750 
Q 2769 4750 3195 4129 
Q 3622 3509 3622 2328 
Q 3622 1225 3098 567 
Q 2575 -91 1691 -91 
Q 1453 -91 1209 -44 
Q 966 3 703 97 
z
M 1959 2075 
Q 2384 2075 2632 2365 
Q 2881 2656 2881 3163 
Q 2881 3666 2632 3958 
Q 2384 4250 1959 4250 
Q 1534 4250 1286 3958 
Q 1038 3666 1038 3163 
Q 1038 2656 1286 2365 
Q 1534 2075 1959 2075 
z
" transform="scale(0.015625)"/>
      <path id="DejaVuSans-25" d="M 4653 2053 
Q 4381 2053 4226 1822 
Q 4072 1591 4072 1178 
Q 4072 772 4226 539 
Q 4381 306 4653 306 
Q 4919 306 5073 539 
Q 5228 772 5228 1178 
Q 5228 1588 5073 1820 
Q 4919 2053 4653 2053 
z
M 4653 2450 
Q 5147 2450 5437 2106 
Q 5728 1763 5728 1178 
Q 5728 594 5436 251 
Q 5144 -91 4653 -91 
Q 4153 -91 3862 251 
Q 3572 594 3572 1178 
Q 3572 1766 3864 2108 
Q 4156 2450 4653 2450 
z
M 1428 4353 
Q 1159 4353 1004 4120 
Q 850 3888 850 3481 
Q 850 3069 1003 2837 
Q 1156 2606 1428 2606 
Q 1700 2606 1854 2837 
Q 2009 3069 2009 3481 
Q 2009 3884 1853 4118 
Q 1697 4353 1428 4353 
z
M 4250 4750 
L 4750 4750 
L 1831 -91 
L 1331 -91 
L 4250 4750 
z
M 1428 4750 
Q 1922 4750 2215 4408 
Q 2509 4066 2509 3481 
Q 2509 2891 2217 2550 
Q 1925 2209 1428 2209 
Q 931 2209 642 2551 
Q 353 2894 353 3481 
Q 353 4063 643 4406 
Q 934 4750 1428 4750 
z
" transform="scale(0.015625)"/>
      <path id="DejaVuSans-70" d="M 1159 525 
L 1159 -1331 
L 581 -1331 
L 581 3500 
L 1159 3500 
L 1159 2969 
Q 1341 3281 1617 3432 
Q 1894 3584 2278 3584 
Q 2916 3584 3314 3078 
Q 3713 2572 3713 1747 
Q 3713 922 3314 415 
Q 2916 -91 2278 -91 
Q 1894 -91 1617 61 
Q 1341 213 1159 525 
z
M 3116 1747 
Q 3116 2381 2855 2742 
Q 2594 3103 2138 3103 
Q 1681 3103 1420 2742 
Q 1159 2381 1159 1747 
Q 1159 1113 1420 752 
Q 1681 391 2138 391 
Q 2594 391 2855 752 
Q 3116 1113 3116 1747 
z
" transform="scale(0.015625)"/>
      <path id="DejaVuSans-66" d="M 2375 4863 
L 2375 4384 
L 1825 4384 
Q 1516 4384 1395 4259 
Q 1275 4134 1275 3809 
L 1275 3500 
L 2222 3500 
L 2222 3053 
L 1275 3053 
L 1275 0 
L 697 0 
L 697 3053 
L 147 3053 
L 147 3500 
L 697 3500 
L 697 3744 
Q 697 4328 969 4595 
Q 1241 4863 1831 4863 
L 2375 4863 
z
" transform="scale(0.015625)"/>
      <path id="DejaVuSans-54" d="M -19 4666 
L 3928 4666 
L 3928 4134 
L 2272 4134 
L 2272 0 
L 1638 0 
L 1638 4134 
L -19 4134 
L -19 4666 
z
" transform="scale(0.015625)"/>
      <path id="DejaVuSans-64" d="M 2906 2969 
L 2906 4863 
L 3481 4863 
L 3481 0 
L 2906 0 
L 2906 525 
Q 2725 213 2448 61 
Q 2172 -91 1784 -91 
Q 1150 -91 751 415 
Q 353 922 353 1747 
Q 353 2572 751 3078 
Q 1150 3584 1784 3584 
Q 2172 3584 2448 3432 
Q 2725 3281 2906 2969 
z
M 947 1747 
Q 947 1113 1208 752 
Q 1469 391 1925 391 
Q 2381 391 2643 752 
Q 2906 1113 2906 1747 
Q 2906 2381 2643 2742 
Q 2381 3103 1925 3103 
Q 1469 3103 1208 2742 
Q 947 2381 947 1747 
z
" transform="scale(0.015625)"/>
     </defs>
     <use xlink:href="#DejaVuSans-41"/>
     <use xlink:href="#DejaVuSans-6c" transform="translate(68.408203 0)"/>
     <use xlink:href="#DejaVuSans-69" transform="translate(96.191406 0)"/>
     <use xlink:href="#DejaVuSans-67" transform="translate(123.974609 0)"/>
     <use xlink:href="#DejaVuSans-6e" transform="translate(187.451172 0)"/>
     <use xlink:href="#DejaVuSans-6d" transform="translate(250.830078 0)"/>
     <use xlink:href="#DejaVuSans-65" transform="translate(348.242188 0)"/>
     <use xlink:href="#DejaVuSans-6e" transform="translate(409.765625 0)"/>
     <use xlink:href="#DejaVuSans-74" transform="translate(473.144531 0)"/>
     <use xlink:href="#DejaVuSans-20" transform="translate(512.353516 0)"/>
     <use xlink:href="#DejaVuSans-53" transform="translate(544.140625 0)"/>
     <use xlink:href="#DejaVuSans-63" transform="translate(607.617188 0)"/>
     <use xlink:href="#DejaVuSans-6f" transform="translate(662.597656 0)"/>
     <use xlink:href="#DejaVuSans-72" transform="translate(723.779297 0)"/>
     <use xlink:href="#DejaVuSans-65" transform="translate(762.642578 0)"/>
     <use xlink:href="#DejaVuSans-20" transform="translate(824.166016 0)"/>
     <use xlink:href="#DejaVuSans-44" transform="translate(855.953125 0)"/>
     <use xlink:href="#DejaVuSans-69" transform="translate(932.955078 0)"/>
     <use xlink:href="#DejaVuSans-73" transform="translate(960.738281 0)"/>
     <use xlink:href="#DejaVuSans-74" transform="translate(1012.837891 0)"/>
     <use xlink:href="#DejaVuSans-72" transform="translate(1052.046875 0)"/>
     <use xlink:href="#DejaVuSans-69" transform="translate(1093.160156 0)"/>
     <use xlink:href="#DejaVuSans-62" transform="translate(1120.943359 0)"/>
     <use xlink:href="#DejaVuSans-75" transform="translate(1184.419922 0)"/>
     <use xlink:href="#DejaVuSans-74" transform="translate(1247.798828 0)"/>
     <use xlink:href="#DejaVuSans-69" transform="translate(1287.007812 0)"/>
     <use xlink:href="#DejaVuSans-6f" transform="translate(1314.791016 0)"/>
     <use xlink:href="#DejaVuSans-6e" transform="translate(1375.972656 0)"/>
     <use xlink:href="#DejaVuSans-20" transform="translate(1439.351562 0)"/>
     <use xlink:href="#DejaVuSans-77" transform="translate(1471.138672 0)"/>
     <use xlink:href="#DejaVuSans-69" transform="translate(1552.925781 0)"/>
     <use xlink:href="#DejaVuSans-74" transform="translate(1580.708984 0)"/>
     <use xlink:href="#DejaVuSans-68" transform="translate(1619.917969 0)"/>
     <use xlink:href="#DejaVuSans-20" transform="translate(1683.296875 0)"/>
     <use xlink:href="#DejaVuSans-39" transform="translate(1715.083984 0)"/>
     <use xlink:href="#DejaVuSans-35" transform="translate(1778.707031 0)"/>
     <use xlink:href="#DejaVuSans-25" transform="translate(1842.330078 0)"/>
     <use xlink:href="#DejaVuSans-20" transform="translate(1937.349609 0)"/>
     <use xlink:href="#DejaVuSans-53" transform="translate(1969.136719 0)"/>
     <use xlink:href="#DejaVuSans-70" transform="translate(2032.613281 0)"/>
     <use xlink:href="#DejaVuSans-65" transform="translate(2096.089844 0)"/>
     <use xlink:href="#DejaVuSans-63" transform="translate(2157.613281 0)"/>
     <use xlink:href="#DejaVuSans-69" transform="translate(2212.59375 0)"/>
     <use xlink:href="#DejaVuSans-66" transform="translate(2240.376953 0)"/>
     <use xlink:href="#DejaVuSans-69" transform="translate(2275.582031 0)"/>
     <use xlink:href="#DejaVuSans-63" transform="translate(2303.365234 0)"/>
     <use xlink:href="#DejaVuSans-69" transform="translate(2358.345703 0)"/>
     <use xlink:href="#DejaVuSans-74" transform="translate(2386.128906 0)"/>
     <use xlink:href="#DejaVuSans-79" transform="translate(2425.337891 0)"/>
     <use xlink:href="#DejaVuSans-20" transform="translate(2484.517578 0)"/>
     <use xlink:href="#DejaVuSans-54" transform="translate(2516.304688 0)"/>
     <use xlink:href="#DejaVuSans-68" transform="translate(2577.388672 0)"/>
     <use xlink:href="#DejaVuSans-72" transform="translate(2640.767578 0)"/>
     <use xlink:href="#DejaVuSans-65" transform="translate(2679.630859 0)"/>
     <use xlink:href="#DejaVuSans-73" transform="translate(2741.154297 0)"/>
     <use xlink:href="#DejaVuSans-68" transform="translate(2793.253906 0)"/>
     <use xlink:href="#DejaVuSans-6f" transform="translate(2856.632812 0)"/>
     <use xlink:href="#DejaVuSans-6c" transform="translate(2917.814453 0)"/>
     <use xlink:href="#DejaVuSans-64" transform="translate(2945.597656 0)"/>
    </g>
   </g>
   <g id="legend_1">
    <g id="patch_205">
     <path d="M 577.625 77.474375 
L 702.2 77.474375 
Q 704.2 77.474375 704.2 75.474375 
L 704.2 32.44 
Q 704.2 30.44 702.2 30.44 
L 577.625 30.44 
Q 575.625 30.44 575.625 32.44 
L 575.625 75.474375 
Q 575.625 77.474375 577.625 77.474375 
z
" style="fill: #ffffff; opacity: 0.8; stroke: #cccccc; stroke-linejoin: miter"/>
    </g>
    <g id="patch_206">
     <path d="M 579.625 42.038437 
L 599.625 42.038437 
L 599.625 35.038437 
L 579.625 35.038437 
z
" style="fill: #87ceeb; opacity: 0.5"/>
    </g>
    <g id="text_19">
     <!-- Real (Forward) -->
     <g transform="translate(607.625 42.038437) scale(0.1 -0.1)">
      <defs>
       <path id="DejaVuSans-52" d="M 2841 2188 
Q 3044 2119 3236 1894 
Q 3428 1669 3622 1275 
L 4263 0 
L 3584 0 
L 2988 1197 
Q 2756 1666 2539 1819 
Q 2322 1972 1947 1972 
L 1259 1972 
L 1259 0 
L 628 0 
L 628 4666 
L 2053 4666 
Q 2853 4666 3247 4331 
Q 3641 3997 3641 3322 
Q 3641 2881 3436 2590 
Q 3231 2300 2841 2188 
z
M 1259 4147 
L 1259 2491 
L 2053 2491 
Q 2509 2491 2742 2702 
Q 2975 2913 2975 3322 
Q 2975 3731 2742 3939 
Q 2509 4147 2053 4147 
L 1259 4147 
z
" transform="scale(0.015625)"/>
       <path id="DejaVuSans-61" d="M 2194 1759 
Q 1497 1759 1228 1600 
Q 959 1441 959 1056 
Q 959 750 1161 570 
Q 1363 391 1709 391 
Q 2188 391 2477 730 
Q 2766 1069 2766 1631 
L 2766 1759 
L 2194 1759 
z
M 3341 1997 
L 3341 0 
L 2766 0 
L 2766 531 
Q 2569 213 2275 61 
Q 1981 -91 1556 -91 
Q 1019 -91 701 211 
Q 384 513 384 1019 
Q 384 1609 779 1909 
Q 1175 2209 1959 2209 
L 2766 2209 
L 2766 2266 
Q 2766 2663 2505 2880 
Q 2244 3097 1772 3097 
Q 1472 3097 1187 3025 
Q 903 2953 641 2809 
L 641 3341 
Q 956 3463 1253 3523 
Q 1550 3584 1831 3584 
Q 2591 3584 2966 3190 
Q 3341 2797 3341 1997 
z
" transform="scale(0.015625)"/>
       <path id="DejaVuSans-28" d="M 1984 4856 
Q 1566 4138 1362 3434 
Q 1159 2731 1159 2009 
Q 1159 1288 1364 580 
Q 1569 -128 1984 -844 
L 1484 -844 
Q 1016 -109 783 600 
Q 550 1309 550 2009 
Q 550 2706 781 3412 
Q 1013 4119 1484 4856 
L 1984 4856 
z
" transform="scale(0.015625)"/>
       <path id="DejaVuSans-46" d="M 628 4666 
L 3309 4666 
L 3309 4134 
L 1259 4134 
L 1259 2759 
L 3109 2759 
L 3109 2228 
L 1259 2228 
L 1259 0 
L 628 0 
L 628 4666 
z
" transform="scale(0.015625)"/>
       <path id="DejaVuSans-29" d="M 513 4856 
L 1013 4856 
Q 1481 4119 1714 3412 
Q 1947 2706 1947 2009 
Q 1947 1309 1714 600 
Q 1481 -109 1013 -844 
L 513 -844 
Q 928 -128 1133 580 
Q 1338 1288 1338 2009 
Q 1338 2731 1133 3434 
Q 928 4138 513 4856 
z
" transform="scale(0.015625)"/>
      </defs>
      <use xlink:href="#DejaVuSans-52"/>
      <use xlink:href="#DejaVuSans-65" transform="translate(64.982422 0)"/>
      <use xlink:href="#DejaVuSans-61" transform="translate(126.505859 0)"/>
      <use xlink:href="#DejaVuSans-6c" transform="translate(187.785156 0)"/>
      <use xlink:href="#DejaVuSans-20" transform="translate(215.568359 0)"/>
      <use xlink:href="#DejaVuSans-28" transform="translate(247.355469 0)"/>
      <use xlink:href="#DejaVuSans-46" transform="translate(286.369141 0)"/>
      <use xlink:href="#DejaVuSans-6f" transform="translate(340.263672 0)"/>
      <use xlink:href="#DejaVuSans-72" transform="translate(401.445312 0)"/>
      <use xlink:href="#DejaVuSans-77" transform="translate(442.558594 0)"/>
      <use xlink:href="#DejaVuSans-61" transform="translate(524.345703 0)"/>
      <use xlink:href="#DejaVuSans-72" transform="translate(585.625 0)"/>
      <use xlink:href="#DejaVuSans-64" transform="translate(624.988281 0)"/>
      <use xlink:href="#DejaVuSans-29" transform="translate(688.464844 0)"/>
     </g>
    </g>
    <g id="patch_207">
     <path d="M 579.625 56.716563 
L 599.625 56.716563 
L 599.625 49.716563 
L 579.625 49.716563 
z
" style="fill: #fa8072; opacity: 0.5"/>
    </g>
    <g id="text_20">
     <!-- Random (Reverse) -->
     <g transform="translate(607.625 56.716563) scale(0.1 -0.1)">
      <defs>
       <path id="DejaVuSans-76" d="M 191 3500 
L 800 3500 
L 1894 563 
L 2988 3500 
L 3597 3500 
L 2284 0 
L 1503 0 
L 191 3500 
z
" transform="scale(0.015625)"/>
      </defs>
      <use xlink:href="#DejaVuSans-52"/>
      <use xlink:href="#DejaVuSans-61" transform="translate(67.232422 0)"/>
      <use xlink:href="#DejaVuSans-6e" transform="translate(128.511719 0)"/>
      <use xlink:href="#DejaVuSans-64" transform="translate(191.890625 0)"/>
      <use xlink:href="#DejaVuSans-6f" transform="translate(255.367188 0)"/>
      <use xlink:href="#DejaVuSans-6d" transform="translate(316.548828 0)"/>
      <use xlink:href="#DejaVuSans-20" transform="translate(413.960938 0)"/>
      <use xlink:href="#DejaVuSans-28" transform="translate(445.748047 0)"/>
      <use xlink:href="#DejaVuSans-52" transform="translate(484.761719 0)"/>
      <use xlink:href="#DejaVuSans-65" transform="translate(549.744141 0)"/>
      <use xlink:href="#DejaVuSans-76" transform="translate(611.267578 0)"/>
      <use xlink:href="#DejaVuSans-65" transform="translate(670.447266 0)"/>
      <use xlink:href="#DejaVuSans-72" transform="translate(731.970703 0)"/>
      <use xlink:href="#DejaVuSans-73" transform="translate(773.083984 0)"/>
      <use xlink:href="#DejaVuSans-65" transform="translate(825.183594 0)"/>
      <use xlink:href="#DejaVuSans-29" transform="translate(886.707031 0)"/>
     </g>
    </g>
    <g id="line2d_17">
     <path d="M 579.625 67.894687 
L 589.625 67.894687 
L 599.625 67.894687 
" style="fill: none; stroke-dasharray: 7.4,3.2; stroke-dashoffset: 0; stroke: #000000; stroke-width: 2"/>
    </g>
    <g id="text_21">
     <!-- Threshold = 30 -->
     <g transform="translate(607.625 71.394687) scale(0.1 -0.1)">
      <defs>
       <path id="DejaVuSans-3d" d="M 678 2906 
L 4684 2906 
L 4684 2381 
L 678 2381 
L 678 2906 
z
M 678 1631 
L 4684 1631 
L 4684 1100 
L 678 1100 
L 678 1631 
z
" transform="scale(0.015625)"/>
       <path id="DejaVuSans-33" d="M 2597 2516 
Q 3050 2419 3304 2112 
Q 3559 1806 3559 1356 
Q 3559 666 3084 287 
Q 2609 -91 1734 -91 
Q 1441 -91 1130 -33 
Q 819 25 488 141 
L 488 750 
Q 750 597 1062 519 
Q 1375 441 1716 441 
Q 2309 441 2620 675 
Q 2931 909 2931 1356 
Q 2931 1769 2642 2001 
Q 2353 2234 1838 2234 
L 1294 2234 
L 1294 2753 
L 1863 2753 
Q 2328 2753 2575 2939 
Q 2822 3125 2822 3475 
Q 2822 3834 2567 4026 
Q 2313 4219 1838 4219 
Q 1578 4219 1281 4162 
Q 984 4106 628 3988 
L 628 4550 
Q 988 4650 1302 4700 
Q 1616 4750 1894 4750 
Q 2613 4750 3031 4423 
Q 3450 4097 3450 3541 
Q 3450 3153 3228 2886 
Q 3006 2619 2597 2516 
z
" transform="scale(0.015625)"/>
      </defs>
      <use xlink:href="#DejaVuSans-54"/>
      <use xlink:href="#DejaVuSans-68" transform="translate(61.083984 0)"/>
      <use xlink:href="#DejaVuSans-72" transform="translate(124.462891 0)"/>
      <use xlink:href="#DejaVuSans-65" transform="translate(163.326172 0)"/>
      <use xlink:href="#DejaVuSans-73" transform="translate(224.849609 0)"/>
      <use xlink:href="#DejaVuSans-68" transform="translate(276.949219 0)"/>
      <use xlink:href="#DejaVuSans-6f" transform="translate(340.328125 0)"/>
      <use xlink:href="#DejaVuSans-6c" transform="translate(401.509766 0)"/>
      <use xlink:href="#DejaVuSans-64" transform="translate(429.292969 0)"/>
      <use xlink:href="#DejaVuSans-20" transform="translate(492.769531 0)"/>
      <use xlink:href="#DejaVuSans-3d" transform="translate(524.556641 0)"/>
      <use xlink:href="#DejaVuSans-20" transform="translate(608.345703 0)"/>
      <use xlink:href="#DejaVuSans-33" transform="translate(640.132812 0)"/>
      <use xlink:href="#DejaVuSans-30" transform="translate(703.755859 0)"/>
     </g>
    </g>
   </g>
  </g>
 </g>
 <defs>
  <clipPath id="pbc32b87a69">
   <rect x="54.2" y="25.44" width="655" height="364.6"/>
  </clipPath>
 </defs>
</svg>
